<svg width="54" height="53" viewBox="0 0 54 53" fill="none" xmlns="http://www.w3.org/2000/svg">
<path d="M19.222 13.034C19.214 12.999 19.179 13.013 19.222 13.034Z" fill="#3D3D3D"/>
<path d="M36.144 28.9201C36.149 28.9281 36.155 28.9281 36.162 28.9341C36.244 28.8751 36.316 28.8251 36.373 28.7891L36.144 28.9201Z" fill="#3D3D3D"/>
<path d="M38.341 32.0001C38.339 32.0141 38.339 32.0221 38.338 32.0351C38.38 31.9911 38.425 31.9521 38.341 32.0001Z" fill="#3D3D3D"/>
<path d="M29.404 23.5002C29.385 23.4732 29.357 23.4762 29.325 23.4902C29.354 23.4872 29.38 23.4882 29.404 23.5002Z" fill="#3D3D3D"/>
<path d="M14.01 8.576C14.01 8.576 14.02 8.57901 14.028 8.58101C14.033 8.55701 14.034 8.53801 14.042 8.51001L14.01 8.576Z" fill="#3D3D3D"/>
<path d="M14.184 8.50806C14.19 8.61806 14.068 8.59205 14.028 8.58105C13.996 8.74105 14.053 8.81305 14.162 8.83405C14.271 8.72405 14.131 8.61806 14.184 8.50806Z" fill="#3D3D3D"/>
<path d="M4.936 0.107117L5.006 0.0891113C4.984 0.0901113 4.96 0.0971167 4.936 0.107117Z" fill="#3D3D3D"/>
<path d="M24.305 29.118C24.282 29.115 24.263 29.105 24.239 29.104C24.257 29.128 24.28 29.127 24.305 29.118Z" fill="#3D3D3D"/>
<path d="M6.21201 1.60014L6.39999 1.44214C6.31399 1.50014 6.25701 1.55214 6.21201 1.60014Z" fill="#3D3D3D"/>
<path d="M36.373 28.7892L36.46 28.7412C36.438 28.7502 36.408 28.7682 36.373 28.7892Z" fill="#3D3D3D"/>
<path d="M40.667 34.55C40.615 34.604 40.578 34.6521 40.548 34.6951C40.551 34.6981 40.553 34.701 40.554 34.703L40.667 34.55Z" fill="#3D3D3D"/>
<path d="M50.202 49.593C50.223 49.571 50.243 49.546 50.263 49.519L50.091 49.593C50.127 49.607 50.164 49.607 50.202 49.593Z" fill="#3D3D3D"/>
<path d="M43.261 38.6451C43.284 38.6281 43.31 38.6171 43.333 38.5961C43.334 38.4811 43.196 38.3171 42.996 38.1311L42.772 38.3321L43.261 38.6451Z" fill="#3D3D3D"/>
<path d="M41.96 47.2591L42.031 46.4751C43.372 47.4221 43.477 48.3851 44.801 49.0191L44.654 49.0571C44.698 49.2991 45.739 48.4181 46.14 51.1671L46.097 51.2101C46.159 51.2571 46.244 51.1711 46.239 51.3941L46.229 50.8601C46.499 50.9161 46.846 50.8541 47.093 51.0421C47.092 51.1351 47.02 51.2391 46.956 51.3121L47.561 51.7741L47.448 52.2141C47.761 52.2271 48.27 51.5701 48.381 52.3311C48.621 51.7621 48.84 52.3051 48.992 52.0451C48.964 52.1171 48.939 52.2421 48.91 52.3511C49.216 52.5631 49.818 52.9381 50.147 52.8521C50.147 52.8521 49.984 50.9851 50.144 50.2801C50.399 50.7551 50.29 50.3271 50.354 50.1191L50.229 50.1951C50.109 49.8771 50.364 49.6221 50.326 49.4421C50.306 49.4621 50.284 49.4911 50.262 49.5191L50.31 49.4991C50.275 49.5541 50.238 49.5801 50.201 49.5931C50.149 49.6501 50.096 49.6831 50.052 49.6081L50.09 49.5931C49.961 49.5391 49.844 49.3411 49.793 49.2541L50.005 49.0391C49.437 49.2831 49.535 47.3291 49.331 47.0981C49.381 46.6101 48.774 46.6751 48.636 46.2671C48.27 45.7631 48.73 45.7381 48.695 45.3361C48.556 44.9291 48.501 45.6401 48.378 45.5451L48.348 44.9211C48.564 45.0851 48.589 44.8541 48.637 44.7361C48.391 44.4171 48.336 43.5801 47.824 43.9191C47.647 43.3341 47.816 43.1621 47.674 42.9781C47.651 43.1101 47.689 43.2901 47.604 43.3761C47.639 43.0361 47.485 43.3491 47.505 43.4541C47.087 43.4061 47.072 41.4691 46.556 41.8881L46.641 41.8031C46.239 42.0971 45.988 42.5221 45.633 42.5511L45.68 42.2871L45.367 42.2731C45.371 42.0501 45.517 42.0121 45.56 41.9691C45.133 41.8641 44.953 41.3001 44.678 40.9311L44.071 42.2221C44.018 41.7311 43.972 40.7951 43.612 41.0461L43.768 40.5641C43.831 39.4101 43.123 40.4481 43.088 40.0461L43.161 39.4251L43.428 39.7041C43.331 39.2551 43.336 39.0331 43.345 38.5891C43.342 38.5921 43.337 38.5931 43.333 38.5961C43.334 38.6251 43.327 38.6521 43.308 38.6741L43.262 38.6441C43.056 38.7841 42.795 38.7611 42.614 38.5571C42.39 38.2351 41.921 38.2781 41.853 37.4751L41.389 37.7221L41.274 37.1831L41.557 36.9001C41.86 37.2371 42.571 37.7331 42.997 38.1301L43.134 38.0081C42.889 37.7641 42.486 37.6121 42.353 37.4221C42.331 37.2871 42.424 36.7921 42.76 36.7471L42.333 36.8731C41.486 36.0901 41.467 36.0981 40.937 34.9271L40.869 35.1431C40.617 35.0581 40.367 34.9711 40.551 34.6941C40.087 34.1371 39.736 33.4291 39.762 32.7401L39.356 33.0011C39.267 32.8751 39.608 32.2101 39.089 32.6231L38.712 32.5401C38.59 32.3671 38.309 32.4671 38.333 32.1081V32.1061C38.335 32.0841 38.336 32.0601 38.341 32.0351C38.331 32.0451 38.323 32.0551 38.315 32.0651C38.129 31.5841 38.02 32.3671 37.829 31.7931C37.943 31.4341 37.271 32.0801 37.16 31.8181L37.451 31.1531C37.388 30.5411 36.851 30.9631 36.361 30.4761C36.297 30.0711 36.591 29.5501 37.108 29.3431C36.456 29.5681 36.725 29.5311 36.231 29.4581C36.368 29.2341 36.436 29.2261 36.661 29.1271C36.62 28.6641 36.343 29.1341 36.164 28.9341C35.769 29.2181 35.166 29.6951 35.082 29.6551L35.049 29.8351C34.667 29.8151 34.363 29.6801 34.299 29.2761L34.479 29.1141L34.144 28.9521L34.347 28.7181L33.924 28.4311L33.914 28.5391C33.802 28.4841 33.453 28.2861 33.41 28.0151L33.537 27.8991C33.474 27.0791 32.614 27.2101 32.057 26.7331L32.373 26.5531C32.443 26.1311 31.944 26.8861 31.857 26.5531L32.151 26.2391C31.566 26.4541 31.997 25.9151 32.021 25.6371L31.682 26.0951L31.526 25.7711C31.394 25.3751 31.867 25.1061 32.115 24.9361L31.621 25.0701L31.937 24.6831C31.397 24.9611 31.871 24.4861 31.422 24.4751C31.536 24.3231 31.671 24.3051 31.649 24.1701L30.773 24.2861L31.222 24.2951L30.68 24.7811C30.051 24.9321 30.413 24.4021 30.099 24.3751L30.369 24.3401C29.966 24.1861 30.17 23.9531 30.127 23.6821C30.08 23.8261 30.013 24.0431 29.833 23.9971C29.722 23.9431 29.969 23.7721 29.947 23.6371C29.586 23.9611 29.205 23.9431 29.186 23.6001C29.237 23.5541 29.288 23.5101 29.331 23.4911C29.229 23.5001 29.117 23.5651 29.119 23.4021L29.547 23.0691L29.03 23.2771C29.031 23.0701 28.605 23.1951 28.875 22.9521L29.01 22.9341L28.321 22.0611L28.615 21.7461C28.119 22.0881 28.349 21.1611 27.851 21.7101C27.989 21.2781 27.069 21.3311 27.746 20.8281C27.278 20.2691 26.434 20.5591 26.097 19.6491C26.375 18.9261 25.604 18.4791 25.257 18.0261C24.265 17.4531 23.571 17.1351 22.61 16.4951C22.827 15.3151 21.169 15.5351 21.046 14.6231L20.627 14.7591C20.725 13.9731 19.659 13.9881 19.606 13.0741C19.366 13.0771 19.266 13.0531 19.229 13.0361C19.237 13.0711 19.218 13.1571 19.053 13.3441C19.039 13.0821 18.605 12.9581 18.977 12.6261L19.048 12.6251C19.42 12.2931 18.465 12.3711 18.616 11.9121L18.323 12.3731L18.126 12.0481L18.268 12.0451C16.297 11.7471 16.98 10.0391 15.15 9.73813C15.703 9.46813 14.724 9.74413 15.16 9.28113C15.457 8.44713 14.54 8.90513 14.169 8.83613C14.147 8.85813 14.118 8.88113 14.071 8.90313L13.74 8.46413C14.539 8.12613 12.991 8.65813 13.686 8.38613C13.107 6.95713 11.364 6.07913 10.397 4.72113L10.302 4.91813C10.035 4.59513 9.49101 4.40613 9.50101 3.94913C9.51001 3.49213 8.64101 3.83113 8.53101 3.76713C8.03401 3.77413 8.31201 3.05013 8.39101 3.18113C8.05901 2.98813 7.29299 3.26113 7.15199 2.67513C7.50999 2.06913 5.68699 2.15513 6.21899 1.60213L6.16901 1.64413C6.08501 0.796127 4.995 1.00713 4.84 0.159126C4.84 0.159126 4.88899 0.129131 4.94299 0.109131L2.274 0.73613L0.751999 2.84013L0.164993 5.19813L2.883 7.27713L4.222 9.76713L9.076 14.2311L9.81799 14.1551C10.018 15.7861 12.015 16.1371 12.491 17.6341L12.864 17.3021C13.163 17.5591 12.926 17.7581 12.933 17.8891C15.598 20.3971 18.73 22.5911 20.613 25.3621C20.605 25.8191 21.424 26.3651 21.354 26.7871C22.541 27.1121 23.337 27.9171 24.05 28.7181L23.983 28.7281L24.407 29.0171C24.393 29.0611 24.353 29.1051 24.315 29.1201C25.029 29.2101 25.354 30.1521 25.719 30.7721L25.652 30.7821C28.461 33.7191 31.785 35.7281 34.142 39.0691C34.892 40.9681 37.226 41.7161 38.267 43.7151C38.186 44.3411 41.524 47.1521 41.96 47.2591Z" fill="#3D3D3D"/>
<path d="M46.958 51.3132L46.944 51.3032C46.796 51.4512 46.87 51.4132 46.958 51.3132Z" fill="#3D3D3D"/>
<path d="M44.661 40.9082C44.667 40.9162 44.672 40.9242 44.677 40.9322L44.811 40.6472L44.661 40.9082Z" fill="#3D3D3D"/>
<path d="M48.852 44.8531C48.716 44.6241 48.671 44.6511 48.637 44.7361C48.694 44.8111 48.763 44.8581 48.852 44.8531Z" fill="#3D3D3D"/>
<path d="M48.733 52.5232C48.817 52.6312 48.869 52.5062 48.912 52.3502C48.796 52.2702 48.719 52.2112 48.719 52.2112C48.738 52.3012 48.714 52.4332 48.733 52.5232Z" fill="#3D3D3D"/>
<path d="M50.355 50.1181L50.505 50.0281C50.419 50.0011 50.378 50.0471 50.355 50.1181Z" fill="#3D3D3D"/>
<path d="M14.034 33.7781C14.013 33.8201 13.999 33.7861 14.034 33.7781Z" fill="#3D3D3D"/>
<path d="M29.92 16.8562C29.928 16.8512 29.928 16.8452 29.934 16.8382C29.875 16.7562 29.825 16.6842 29.789 16.6272L29.92 16.8562Z" fill="#3D3D3D"/>
<path d="M33 14.6592C33.014 14.6612 33.022 14.6612 33.035 14.6622C32.991 14.6202 32.952 14.5752 33 14.6592Z" fill="#3D3D3D"/>
<path d="M24.5 23.5952C24.473 23.6142 24.476 23.6422 24.49 23.6742C24.487 23.6462 24.487 23.6202 24.5 23.5952Z" fill="#3D3D3D"/>
<path d="M9.576 38.99C9.576 38.99 9.57899 38.98 9.58099 38.972C9.55799 38.967 9.53799 38.967 9.50999 38.958L9.576 38.99Z" fill="#3D3D3D"/>
<path d="M9.508 38.8162C9.618 38.8102 9.59199 38.9322 9.58099 38.9722C9.74099 39.0042 9.813 38.9472 9.834 38.8382C9.724 38.7292 9.618 38.8692 9.508 38.8162Z" fill="#3D3D3D"/>
<path d="M1.10699 48.0642L1.089 47.9932C1.09 48.0162 1.09699 48.0402 1.10699 48.0642Z" fill="#3D3D3D"/>
<path d="M30.118 28.6951C30.115 28.7181 30.105 28.7371 30.104 28.7611C30.128 28.7431 30.127 28.7201 30.118 28.6951Z" fill="#3D3D3D"/>
<path d="M2.60001 46.7881L2.442 46.6001C2.5 46.6861 2.55201 46.7431 2.60001 46.7881Z" fill="#3D3D3D"/>
<path d="M29.789 16.627L29.74 16.54C29.75 16.562 29.768 16.592 29.789 16.627Z" fill="#3D3D3D"/>
<path d="M35.55 12.333C35.604 12.385 35.652 12.422 35.695 12.452C35.698 12.449 35.701 12.447 35.703 12.446L35.55 12.333Z" fill="#3D3D3D"/>
<path d="M50.593 2.79806C50.571 2.77706 50.546 2.75706 50.519 2.73706L50.593 2.90906C50.607 2.87306 50.607 2.83606 50.593 2.79806Z" fill="#3D3D3D"/>
<path d="M39.645 9.739C39.628 9.716 39.618 9.69 39.596 9.667C39.481 9.666 39.317 9.804 39.131 10.004L39.332 10.228L39.645 9.739Z" fill="#3D3D3D"/>
<path d="M48.259 11.039L47.475 10.968C48.422 9.62703 49.385 9.52202 50.019 8.19802L50.057 8.34502C50.299 8.30102 49.418 7.26002 52.167 6.85902L52.21 6.90202C52.257 6.84002 52.171 6.75503 52.394 6.76003L51.86 6.77002C51.916 6.49902 51.854 6.15302 52.042 5.90602C52.136 5.90702 52.239 5.97902 52.312 6.04302L52.774 5.43803L53.214 5.55103C53.227 5.23803 52.57 4.72902 53.331 4.61802C52.762 4.37802 53.305 4.15903 53.045 4.00703C53.117 4.03503 53.242 4.06002 53.351 4.08902C53.563 3.78302 53.938 3.18102 53.852 2.85202C53.852 2.85202 51.985 3.01503 51.28 2.85503C51.755 2.60003 51.327 2.70902 51.119 2.64502L51.195 2.77002C50.878 2.89002 50.622 2.63502 50.442 2.67302C50.463 2.69402 50.491 2.71502 50.519 2.73702L50.499 2.68903C50.554 2.72403 50.579 2.76102 50.593 2.79802C50.65 2.85002 50.683 2.90302 50.608 2.94702L50.593 2.90902C50.539 3.03802 50.341 3.15502 50.254 3.20602L50.039 2.99403C50.283 3.56203 48.329 3.46402 48.098 3.66802C47.61 3.61802 47.675 4.22502 47.267 4.36302C46.763 4.72902 46.738 4.26902 46.336 4.30402C45.929 4.44302 46.64 4.49803 46.545 4.62103L45.921 4.65102C46.085 4.43502 45.854 4.41002 45.736 4.36202C45.417 4.60802 44.58 4.66303 44.919 5.17503C44.334 5.35203 44.162 5.18302 43.978 5.32502C44.111 5.34802 44.29 5.31002 44.376 5.39502C44.036 5.36002 44.349 5.51403 44.454 5.49403C44.406 5.91203 42.469 5.92702 42.888 6.44302L42.803 6.35802C43.097 6.76002 43.522 7.01102 43.552 7.36602L43.288 7.31902L43.274 7.63203C43.051 7.62903 43.013 7.48203 42.97 7.43903C42.865 7.86603 42.301 8.04602 41.932 8.32102L43.223 8.92802C42.732 8.98102 41.796 9.02702 42.047 9.38602L41.565 9.23103C40.411 9.16803 41.449 9.87603 41.047 9.91003L40.426 9.83702L40.705 9.57002C40.256 9.66602 40.034 9.66202 39.59 9.65302C39.594 9.65602 39.594 9.66102 39.597 9.66502C39.627 9.66402 39.653 9.67103 39.676 9.69003L39.646 9.73702C39.786 9.94302 39.763 10.204 39.559 10.385C39.237 10.609 39.28 11.078 38.477 11.146L38.724 11.61L38.185 11.725L37.902 11.442C38.239 11.138 38.735 10.428 39.132 10.002L39.01 9.86502C38.766 10.11 38.614 10.513 38.424 10.646C38.289 10.668 37.793 10.575 37.749 10.239L37.875 10.666C37.092 11.513 37.1 11.532 35.929 12.062L36.145 12.13C36.06 12.382 35.973 12.631 35.696 12.448C35.139 12.912 34.431 13.263 33.742 13.236L34.003 13.642C33.877 13.732 33.212 13.39 33.625 13.909L33.542 14.287C33.369 14.409 33.469 14.69 33.11 14.666H33.108C33.086 14.665 33.062 14.663 33.037 14.658C33.047 14.668 33.057 14.676 33.067 14.684C32.586 14.87 33.369 14.979 32.795 15.17C32.436 15.056 33.082 15.728 32.821 15.839L32.156 15.548C31.545 15.611 31.966 16.148 31.479 16.638C31.074 16.703 30.553 16.408 30.346 15.891C30.571 16.543 30.534 16.274 30.461 16.768C30.237 16.632 30.229 16.563 30.13 16.339C29.667 16.38 30.137 16.657 29.937 16.836C30.221 17.231 30.698 17.834 30.658 17.918L30.838 17.951C30.818 18.333 30.683 18.637 30.279 18.701L30.117 18.522L29.955 18.857L29.721 18.654L29.433 19.077L29.541 19.087C29.486 19.199 29.288 19.548 29.017 19.591L28.902 19.464C28.082 19.527 28.213 20.387 27.736 20.944L27.556 20.629C27.134 20.559 27.889 21.058 27.556 21.145L27.241 20.851C27.456 21.435 26.917 21.005 26.639 20.981L27.097 21.32L26.773 21.476C26.377 21.608 26.108 21.135 25.938 20.887L26.072 21.381L25.685 21.065C25.963 21.606 25.488 21.131 25.477 21.581C25.325 21.467 25.307 21.332 25.172 21.354L25.288 22.23L25.297 21.781L25.783 22.323C25.934 22.952 25.404 22.59 25.376 22.904L25.341 22.634C25.188 23.037 24.954 22.833 24.683 22.876C24.827 22.923 25.044 22.99 24.998 23.17C24.944 23.281 24.772 23.034 24.638 23.056C24.962 23.417 24.943 23.798 24.601 23.817C24.555 23.766 24.511 23.715 24.492 23.672C24.501 23.774 24.566 23.886 24.403 23.884L24.07 23.456L24.278 23.973C24.071 23.972 24.196 24.398 23.953 24.128L23.935 23.993L23.062 24.682L22.747 24.388C23.089 24.884 22.162 24.654 22.711 25.152C22.279 25.014 22.332 25.934 21.829 25.257C21.27 25.725 21.56 26.569 20.65 26.906C19.927 26.628 19.48 27.399 19.027 27.746C18.453 28.738 18.136 29.432 17.496 30.393C16.316 30.176 16.536 31.834 15.624 31.957L15.76 32.376C14.974 32.278 14.989 33.344 14.075 33.397C14.078 33.637 14.054 33.737 14.037 33.775C14.072 33.767 14.158 33.786 14.345 33.951C14.083 33.965 13.959 34.399 13.627 34.027L13.626 33.956C13.294 33.584 13.372 34.539 12.913 34.388L13.374 34.681L13.049 34.879L13.047 34.737C12.749 36.708 11.041 36.025 10.74 37.855C10.47 37.302 10.746 38.281 10.283 37.845C9.449 37.548 9.907 38.465 9.838 38.836C9.86 38.858 9.883 38.887 9.905 38.934L9.466 39.265C9.128 38.467 9.66 40.014 9.388 39.319C7.959 39.898 7.08101 41.641 5.72301 42.608L5.92 42.703C5.597 42.97 5.408 43.514 4.951 43.504C4.494 43.495 4.833 44.364 4.769 44.474C4.776 44.971 4.052 44.693 4.183 44.614C3.99 44.946 4.263 45.712 3.677 45.853C3.071 45.495 3.157 47.318 2.604 46.786L2.646 46.836C1.798 46.92 2.009 48.01 1.161 48.165C1.161 48.165 1.13099 48.116 1.11099 48.062L1.737 50.731L3.841 52.254L6.19901 52.841L8.278 50.123L10.768 48.784L15.232 43.93L15.156 43.188C16.787 42.988 17.138 40.991 18.635 40.515L18.303 40.142C18.56 39.843 18.759 40.08 18.89 40.073C21.398 37.408 23.592 34.276 26.363 32.393C26.82 32.401 27.366 31.582 27.788 31.652C28.113 30.465 28.918 29.669 29.719 28.956L29.729 29.023L30.018 28.599C30.062 28.613 30.106 28.653 30.121 28.691C30.211 27.977 31.153 27.652 31.772 27.286L31.782 27.353C34.719 24.544 36.728 21.22 40.069 18.863C41.968 18.113 42.716 15.779 44.714 14.738C45.341 14.814 48.152 11.476 48.259 11.039Z" fill="#3D3D3D"/>
<path d="M52.313 6.04199L52.303 6.05599C52.451 6.20299 52.413 6.12999 52.313 6.04199Z" fill="#3D3D3D"/>
<path d="M41.908 8.3392C41.916 8.3332 41.924 8.3282 41.932 8.3232L41.647 8.18921L41.908 8.3392Z" fill="#3D3D3D"/>
<path d="M45.853 4.14819C45.624 4.28419 45.651 4.32919 45.736 4.36319C45.811 4.30519 45.858 4.23719 45.853 4.14819Z" fill="#3D3D3D"/>
<path d="M53.523 4.26714C53.631 4.18314 53.506 4.13113 53.35 4.08813C53.27 4.20413 53.211 4.28114 53.211 4.28114C53.301 4.26214 53.433 4.28614 53.523 4.26714Z" fill="#3D3D3D"/>
<path d="M51.118 2.64511L51.028 2.49512C51.001 2.58012 51.047 2.62211 51.118 2.64511Z" fill="#3D3D3D"/>
</svg>
