<svg width="52" height="52" viewBox="0 0 52 52" fill="none" xmlns="http://www.w3.org/2000/svg">
<path d="M0.344999 4.74518C0.238999 4.63718 0.20099 4.59817 0.16699 4.35217C-0.18101 2.75917 0.01899 -0.235823 4.22299 0.179177C4.29999 0.187177 4.626 0.262177 4.746 0.345177L12.037 7.64217L32.978 28.6092L37.042 32.6772C37.042 32.6772 43.282 39.8192 47.304 45.1812C54.329 54.0792 50.174 51.8692 44.717 47.4572C45.136 48.0682 32.084 36.4832 32.084 36.4832L28.594 32.9932L7.64001 12.0392L0.344999 4.74518Z" fill="#3D3D3D"/>
<path d="M4.745 51.6551C4.637 51.7611 4.598 51.7991 4.352 51.8331C2.759 52.1811 -0.236006 51.9811 0.178994 47.7771C0.186994 47.7001 0.262009 47.3741 0.345009 47.2541L7.64201 39.9631L28.609 19.0221L32.677 14.9581C32.677 14.9581 39.819 8.71708 45.181 4.69608C54.078 -2.32892 51.869 1.82608 47.457 7.28308C48.068 6.86408 36.483 19.9161 36.483 19.9161L32.993 23.4061L12.039 44.3601L4.745 51.6551Z" fill="#3D3D3D"/>
</svg>
