<svg width="56" height="55" viewBox="0 0 56 55" fill="none" xmlns="http://www.w3.org/2000/svg">
<path d="M39.656 31.725C40.025 32.094 40.39 32.459 40.759 32.828C35.115 25.975 28.255 19.599 23.219 12.87C22.972 12.381 22.478 11.405 22.231 10.915C19.654 7.61402 15.856 4.05703 12.674 1.35803C11.082 0.00802958 8.65001 0.234021 8.65001 0.234021C8.04001 0.107021 7.19002 0.223029 7.31502 0.832029C7.93002 1.68803 9.76701 3.52503 9.28401 4.00903C9.16401 4.12903 8.797 3.76303 8.429 3.39503C7.946 3.87803 5.87702 3.74203 5.50902 3.37503C4.89902 3.24903 1.96802 1.76803 1.35902 1.64103C-0.106977 0.901034 1.39 6.02203 2.498 7.85403C2.992 8.83103 1.89403 8.45803 1.53203 8.82003C2.38803 9.43503 2.39402 10.165 3.25102 10.78C3.13002 10.901 5.214 13.226 6.317 14.33C6.317 14.33 6.806 14.577 7.908 15.679C8.276 16.047 8.39701 15.926 8.51701 15.805C8.39601 15.925 8.39601 15.925 8.27601 16.047C8.88601 16.174 9.38 17.151 9.869 17.398C9.748 17.519 9.74803 17.519 9.62703 17.64C10.603 18.133 11.097 19.11 11.952 19.724C11.831 19.845 11.831 19.845 11.71 19.966C12.078 20.334 12.445 20.701 12.325 20.821C12.204 20.942 12.204 20.942 12.083 21.063C12.33 21.552 13.308 22.045 13.066 22.287C13.187 22.166 13.187 22.166 13.308 22.045C14.779 23.516 15.761 24.74 16.743 25.963C19.2 29.387 23.119 32.822 26.669 35.889C27.036 36.256 27.646 36.382 27.52 35.773C27.887 36.141 28.256 36.509 28.623 36.876C29.358 37.611 29.353 36.881 30.088 37.615C36.575 42.895 41.854 49.381 48.098 54.901C46.747 53.31 45.886 51.965 44.295 50.616C44.416 50.495 44.657 50.254 44.289 49.886C42.204 47.559 39.389 45.227 38.769 43.641C38.522 43.153 38.517 42.423 37.414 41.319C37.782 41.687 38.15 42.055 38.518 42.423C38.639 42.302 38.88 42.061 38.88 42.061C37.529 40.469 35.812 38.509 34.462 36.918C34.462 36.918 34.704 36.676 34.824 36.556L34.089 35.821C34.2 34.239 38.124 38.405 40.083 40.122C40.203 40.002 40.445 39.76 40.566 39.639L39.83 38.903L40.072 38.661C42.278 40.867 44.115 42.705 46.323 44.912C45.955 44.544 45.219 43.808 44.851 43.44C44.972 43.319 45.093 43.198 44.726 42.831C46.197 44.302 47.914 46.262 49.626 47.49C50.114 47.737 50.109 47.007 49.127 45.784C48.023 44.68 47.289 43.946 46.185 42.842L46.426 42.6C47.162 43.336 48.144 44.559 49 45.174C49.489 45.421 48.627 44.076 49.115 44.322C49.483 44.69 49.851 45.058 50.34 45.306C49.235 44.201 47.645 42.852 46.662 41.628C46.415 41.14 46.169 40.651 46.41 40.41C44.452 38.694 43.344 36.861 42.845 35.153C42.719 34.546 40.758 32.828 39.656 31.725Z" fill="#3D3D3D"/>
<path d="M32.725 13.3441C33.094 12.9751 33.459 12.6101 33.828 12.2411C26.975 17.8851 20.599 24.7451 13.87 29.7821C13.381 30.0291 12.405 30.5231 11.915 30.7701C8.61401 33.3471 5.057 37.1451 2.358 40.3271C1.008 41.9191 1.23401 44.3511 1.23401 44.3511C1.10801 44.9611 1.223 45.8111 1.832 45.6861C2.688 45.0711 4.525 43.2341 5.009 43.7171C5.129 43.8371 4.76299 44.2041 4.39499 44.5721C4.87799 45.0551 4.742 47.1241 4.375 47.4921C4.249 48.1021 2.76799 51.0331 2.64099 51.6421C1.90099 53.1081 7.022 51.6111 8.854 50.5031C9.831 50.0091 9.45801 51.1071 9.82001 51.4691C10.435 50.6131 11.165 50.6071 11.78 49.7501C11.901 49.8711 14.226 47.7871 15.33 46.6841C15.33 46.6841 15.577 46.1951 16.679 45.0931C17.047 44.7251 16.926 44.6041 16.805 44.4841C16.925 44.6051 16.925 44.6051 17.046 44.7261C17.173 44.1161 18.15 43.6221 18.397 43.1331C18.518 43.2541 18.518 43.2541 18.639 43.3751C19.132 42.3991 20.109 41.9051 20.723 41.0501C20.844 41.1711 20.844 41.1711 20.965 41.2921C21.333 40.9241 21.7 40.5571 21.82 40.6781C21.941 40.7991 21.941 40.7991 22.062 40.9201C22.551 40.6731 23.045 39.6951 23.286 39.9371C23.165 39.8161 23.165 39.8161 23.044 39.6951C24.515 38.2241 25.739 37.2421 26.962 36.2601C30.386 33.8031 33.821 29.8841 36.888 26.3341C37.255 25.9671 37.381 25.3571 36.772 25.4831C37.139 25.1151 37.508 24.7471 37.875 24.3801C38.61 23.6451 37.879 23.6501 38.614 22.9151C43.894 16.4271 50.38 11.1491 55.9 4.90509C54.309 6.25609 52.964 7.11708 51.615 8.70808C51.494 8.58708 51.253 8.3461 50.885 8.7141C48.558 10.7991 46.226 13.6141 44.64 14.2341C44.152 14.4811 43.422 14.4861 42.318 15.5891C42.686 15.2211 43.054 14.8531 43.422 14.4851C43.301 14.3641 43.06 14.1231 43.06 14.1231C41.468 15.4741 39.508 17.1911 37.917 18.5411C37.917 18.5411 37.676 18.2991 37.555 18.1791L36.82 18.9141C35.238 18.8031 39.404 14.8791 41.121 12.9201C41.001 12.8001 40.759 12.5581 40.638 12.4371L39.902 13.1731L39.66 12.9311C41.866 10.7251 43.704 8.88708 45.911 6.68008C45.543 7.04808 44.807 7.78408 44.439 8.15208C44.318 8.03208 44.197 7.91009 43.83 8.27809C45.301 6.80709 47.261 5.0901 48.489 3.3781C48.735 2.8901 48.006 2.89509 46.783 3.87709C45.679 4.98109 44.945 5.71509 43.841 6.81909L43.6 6.57709C44.336 5.84109 45.559 4.8591 46.174 4.0031C46.421 3.5141 45.076 4.37609 45.322 3.88809C45.69 3.52009 46.058 3.15209 46.306 2.66309C45.201 3.76809 43.852 5.35809 42.628 6.34109C42.14 6.58809 41.651 6.83409 41.41 6.59309C39.694 8.55109 37.861 9.6591 36.153 10.1581C35.546 10.2811 33.828 12.2421 32.725 13.3441Z" fill="#3D3D3D"/>
</svg>
