<svg width="55" height="55" viewBox="0 0 55 55" fill="none" xmlns="http://www.w3.org/2000/svg">
<path d="M3.036 3.75436C2.93 3.64836 2.82899 3.54736 2.82899 3.54736C2.80599 3.57036 2.78601 3.59435 2.76401 3.61935C2.86101 3.67035 2.951 3.71436 3.036 3.75436Z" fill="#3D3D3D"/>
<path d="M4.069 3.12628C4.048 3.10528 4.025 3.08228 4.004 3.06128C3.993 3.08728 3.976 3.10727 3.961 3.12927C3.996 3.12727 4.031 3.12428 4.069 3.12628Z" fill="#3D3D3D"/>
<path d="M2.76199 3.62036C2.52399 3.88936 2.35799 4.22837 1.99899 4.37637C1.88399 4.26237 1.65599 4.03337 1.53999 3.91837C1.28699 3.94237 1.26399 4.19437 1.12499 4.33337C1.01099 4.21837 0.89599 4.10437 0.82699 4.17337C0.57099 4.28037 0.574 4.52437 0.753 4.78937C2.023 4.50737 3.55599 5.48736 2.76199 3.62036Z" fill="#3D3D3D"/>
<path d="M4.231 3.98019C4.03 3.77919 3.82901 3.5782 3.62801 3.3772C3.40701 3.4732 3.163 3.54717 3.065 3.76617C3.494 3.96217 3.818 4.01919 4.231 3.98019Z" fill="#3D3D3D"/>
<path d="M51.283 50.4322C51.326 50.3902 51.358 50.3782 51.4 50.5442C51.359 50.5042 51.321 50.4692 51.283 50.4322C51.242 50.4702 51.191 50.5342 51.114 50.5082C51.592 50.8292 52.133 51.2222 52.609 51.6532C52.742 51.6382 52.873 51.6212 52.999 51.5992C51.836 50.5182 50.714 49.3962 49.426 48.8472C50.075 49.4962 50.643 49.8212 51.283 50.4322Z" fill="#3D3D3D"/>
<path d="M53.503 51.2693C53.543 51.3073 53.582 51.3423 53.62 51.3803C53.579 51.2153 53.546 51.2273 53.503 51.2693Z" fill="#3D3D3D"/>
<path d="M31.941 32.8322C31.189 32.1992 30.342 31.8312 29.496 31.4482C30.997 32.5562 32.433 33.7952 33.692 34.5262C33.103 33.9722 32.518 33.4092 31.941 32.8322Z" fill="#3D3D3D"/>
<path d="M25.528 29.3052C26.256 30.2912 27.136 30.8252 28.045 31.2652C27.296 30.6412 26.556 30.0182 25.823 29.3942C25.725 29.3642 25.626 29.3292 25.528 29.3052Z" fill="#3D3D3D"/>
<path d="M26.911 29.8242C27.692 30.6122 28.593 31.0392 29.496 31.4482C28.648 30.8212 27.78 30.2452 26.911 29.8242Z" fill="#3D3D3D"/>
<path d="M48.798 39.0032C49.514 39.3192 49.914 39.5442 50.115 39.6992C50.29 39.6812 50.513 39.6672 50.803 39.6592C50.773 39.6292 50.741 39.5972 50.711 39.5672C50.054 39.1592 49.401 38.7322 48.75 38.2902C48.439 38.1542 48.132 38.0352 47.839 37.9712C48.152 38.3222 48.47 38.6712 48.798 39.0032Z" fill="#3D3D3D"/>
<path d="M50.115 39.6992C50.896 40.3062 48.616 39.8542 50.115 39.6992Z" fill="#3D3D3D"/>
<path d="M42.436 40.7063C42.41 40.6803 42.383 40.6543 42.357 40.6283C42.265 40.5683 42.172 40.5053 42.08 40.4463C42.201 40.5343 42.316 40.6183 42.436 40.7063Z" fill="#3D3D3D"/>
<path d="M38.007 32.3624C38.487 32.7874 38.991 33.1914 39.503 33.5714C38.51 32.7254 37.511 31.8704 36.537 31.3074C36.651 31.4214 36.697 31.6064 36.812 31.7204C37.18 31.8114 37.662 32.0164 38.007 32.3624Z" fill="#3D3D3D"/>
<path d="M46.657 43.6393C45.234 42.5683 43.79 41.5653 42.356 40.6283C39.924 38.2463 37.438 36.0913 34.788 34.5723C32.399 33.2913 29.327 29.9423 26.386 29.2133C26.554 29.4403 26.73 29.6423 26.911 29.8253C26.548 29.6503 26.185 29.5053 25.823 29.3943C22.553 26.6053 19.431 23.7793 16.336 20.6853C15.877 20.2263 15.325 20.0903 14.866 19.6313C14.391 19.1773 13.92 18.7343 13.45 18.2933C13.433 18.3073 13.423 18.3283 13.421 18.3563C11.444 16.5543 9.449 14.8323 7.265 13.1033C6.279 12.2553 5.42899 11.2673 4.51199 10.3503C4.16799 10.0063 4.445 9.72926 4.284 9.43026C3.713 8.16726 3.301 7.20228 2.408 6.03228C2.408 6.03228 2.546 5.89428 2.616 5.82528C2.434 5.69028 2.294 5.54625 2.2 5.40825C3.469 5.12525 5.00199 6.10628 4.20799 4.23928C4.20899 4.23828 4.20901 4.23826 4.21001 4.23726C4.30601 4.28826 4.39499 4.33227 4.48199 4.37227C4.48999 4.38027 4.497 4.38728 4.504 4.39428C4.506 4.39128 4.50899 4.38827 4.50999 4.38527C4.93899 4.58127 5.26199 4.63726 5.67599 4.59826C5.47499 4.39726 5.274 4.19626 5.073 3.99526C5.208 3.93626 5.33001 3.86427 5.40601 3.74627C5.44201 3.74527 5.47701 3.74225 5.51401 3.74425C5.60301 3.83325 5.67799 3.90825 5.67799 3.90825C5.76099 3.88425 5.835 3.85225 5.903 3.81325C6.727 4.04225 7.711 4.71625 7.838 4.27025C7.863 4.00025 7.351 3.74325 6.825 3.39525C6.825 3.34225 6.818 3.28828 6.806 3.23928C7.449 3.74328 7.29 2.75526 7.703 3.03026C8.162 3.48926 8.68999 3.87726 9.14799 4.33626C11.015 6.20326 12.658 7.70826 14.699 9.33526C14.789 9.40726 14.877 9.48027 14.965 9.55227C15.941 10.3553 16.795 11.1803 17.612 12.1053C17.509 12.0973 17.406 12.0833 17.305 12.0663C17.961 12.8113 18.648 13.5283 19.455 14.1243C21.452 15.5673 23.448 17.0113 25.352 18.7763C27.33 20.6433 29.326 22.3493 31.509 24.0693C30.557 23.4263 29.621 22.7693 28.755 21.9983C28.395 21.6233 28.033 21.2543 27.663 20.9133C28.009 21.3043 28.375 21.6613 28.755 21.9983C30.14 23.4393 31.509 24.9743 33.247 25.4143C33.307 25.5893 33.238 25.6593 33.353 25.7733C34.156 26.5763 34.889 27.4483 35.854 27.8593C35.923 27.7903 36.268 28.1353 36.291 27.8813C37.048 28.5003 37.852 29.3033 38.677 29.8533C39.02 30.1063 39.449 30.2703 39.91 30.4053C42.742 32.4963 45.549 34.5573 48.553 36.8593C49.278 37.4523 50.041 38.2103 50.708 38.8763C49.496 38.1253 48.293 37.3053 47.094 36.4503C46.149 35.4033 45.194 34.4503 44.054 34.0193C43.805 33.9023 43.561 33.7823 43.32 33.6583C44.579 34.6123 45.835 35.5523 47.094 36.4503C47.653 37.0683 48.208 37.7183 48.796 38.3113C48.779 38.3043 48.763 38.2983 48.746 38.2903C48.193 37.9163 47.642 37.5323 47.093 37.1403C46.252 36.2093 45.405 35.3533 44.425 34.8723C44.303 34.8123 44.178 34.7563 44.052 34.7093C43.804 34.5933 43.559 34.4722 43.319 34.3472C44.095 34.9362 44.872 35.5183 45.647 36.0893C46.128 36.4433 46.609 36.7953 47.093 37.1403C47.34 37.4143 47.588 37.6943 47.837 37.9713C47.792 37.9603 47.746 37.9482 47.701 37.9422C47.402 37.7802 45.947 37.9513 46.083 38.5023C47.866 40.2503 50.672 42.3993 50.603 42.4693C50.44 42.8603 47.052 40.1973 47.097 40.3813C47.235 40.5823 47.379 40.7773 47.526 40.9693C47.309 40.8643 47.094 40.7653 46.883 40.6853C46.47 40.4103 46.08 39.8822 45.712 39.7912C44.495 39.4042 43.715 38.3483 42.522 37.7063C41.74 37.3403 40.776 36.9293 39.811 36.5183C39.673 36.6563 39.397 36.2423 39.374 36.4963C38.727 35.8493 37.978 35.1003 37.297 35.2263C37.277 35.2143 37.258 35.2023 37.239 35.1903C37.193 35.1443 37.106 35.1023 37.005 35.0653C35.999 33.9173 34.864 33.5493 33.622 32.8393C33.251 32.5393 32.886 32.2203 32.535 31.8693C32.765 32.0993 33.039 32.5113 33.338 32.6723C33.433 32.7303 33.528 32.7853 33.622 32.8393C34.584 33.6183 35.597 34.2623 36.574 34.9403C36.683 34.9673 36.857 35.0103 37.005 35.0653C37.061 35.1283 37.116 35.1923 37.17 35.2593C37.213 35.2453 37.255 35.2343 37.297 35.2263C38.287 35.8193 39.254 36.6443 40.132 37.1153C41.64 38.1513 42.881 39.6243 44.14 40.9623C43.378 40.4323 42.616 39.9202 41.858 39.4292C42.759 40.0942 43.617 40.7133 44.463 41.3013C44.572 41.4143 44.679 41.5243 44.789 41.6343L45.478 42.3233C45.294 42.0783 45.105 41.8433 44.914 41.6113C45.422 41.9593 45.928 42.2993 46.436 42.6243C49.059 44.6003 51.6 46.8053 53.821 49.2403C53.691 49.2793 53.555 49.3103 53.414 49.3353C52.251 48.2543 51.129 47.1333 49.842 46.5843C50.49 47.2323 51.059 47.5583 51.698 48.1693C51.658 48.2083 51.607 48.2713 51.529 48.2453C52.007 48.5663 52.549 48.9593 53.024 49.3913C52.7 49.4253 52.36 49.4393 52.019 49.4543C51.651 49.3623 51.307 49.0193 50.894 48.7433C49.286 47.3743 47.919 45.9363 46.285 44.6373C45.006 43.3053 43.728 41.9753 42.436 40.7073C43.902 41.7823 45.269 42.7533 46.657 43.6393ZM6.367 6.96526C6.513 7.05426 6.669 7.14228 6.827 7.22628C6.824 7.19228 6.821 7.15825 6.821 7.12325C6.71 7.01325 6.536 6.96726 6.367 6.96526ZM8.983 9.71526C8.315 8.80926 7.11899 7.93028 6.00999 7.03628C5.98499 7.04928 5.964 7.06425 5.948 7.08025C6.725 7.98425 7.927 8.84926 8.983 9.71526ZM10.692 14.2963C10.694 14.2823 10.694 14.2683 10.696 14.2553C10.686 14.2663 10.676 14.2783 10.666 14.2883C10.675 14.2903 10.684 14.2933 10.692 14.2963ZM26.871 26.0663C25.608 25.4943 24.461 24.3473 23.175 23.3393C22.831 22.9953 22.211 22.9283 21.752 22.4693C21.11 21.9643 20.627 21.7593 20.099 21.3693L20.305 21.8523C19.57 20.9803 18.697 20.9363 18.033 19.9953C17.964 20.0643 17.711 20.0883 17.596 19.9743C16.954 19.4703 16.518 18.7573 15.921 18.4373C15.278 17.9333 14.706 17.3603 14.108 17.0393C13.993 16.9243 13.557 16.9033 13.257 16.7423C12.949 16.4903 12.651 16.2283 12.353 15.9673C12.347 15.9983 12.34 16.0283 12.332 16.0573C12.557 16.2883 12.796 16.5123 13.073 16.6963C13.9 17.2463 14.841 17.9103 15.598 18.5293C17.457 20.1123 19.34 21.4413 21.221 22.7693C21.634 23.0443 22.117 23.2503 22.529 23.5253C23.838 24.2813 25.031 25.6123 26.202 25.8153C26.388 25.8603 26.617 26.0903 26.871 26.0663ZM31.151 24.3503C29.647 23.4353 28.174 22.2293 27.09 21.0303C26.172 20.1123 23.12 17.8903 22.749 19.1793C25.392 18.8073 30.363 26.7323 31.151 24.3503ZM41.989 32.6453C41.4 32.2733 40.837 31.9073 40.291 31.3613C40.859 31.7883 41.424 32.2163 41.989 32.6453ZM34.286 30.5773C36.261 31.5843 37.936 33.1193 39.702 34.3343C41.057 35.2743 41.972 36.8813 43.488 37.4283C43.557 37.3593 43.626 37.2903 43.696 37.2203L43.512 37.1753C43.15 36.7323 42.936 36.2963 42.657 35.9013C42.683 35.9143 42.708 35.9292 42.734 35.9422C42.696 35.9122 42.659 35.8823 42.621 35.8513C42.431 35.5903 42.207 35.3473 41.884 35.1323C41.727 35.0423 41.569 34.9493 41.412 34.8533C39.856 33.5423 38.27 32.1693 36.536 31.3063C35.526 30.7103 34.492 30.3693 33.482 29.7743C33.712 30.0033 33.988 30.4173 34.286 30.5773Z" fill="#3D3D3D"/>
<path d="M44.702 41.3603C45.282 41.7713 45.861 42.1903 46.436 42.6233C46.91 42.9263 47.387 43.2213 47.872 43.5063C50.083 44.9773 52.109 47.2523 54.253 49.0633C54.515 48.9183 54.729 48.7183 54.872 48.4323C52.95 46.0593 50.432 44.2823 48.401 42.0213C48.377 42.0123 48.353 42.0013 48.329 41.9933C46.996 41.4903 45.643 39.8613 44.151 39.0603C42.59 38.3283 41.304 37.3193 39.812 36.5193C41.47 38.1763 43.194 39.6023 44.702 41.3603Z" fill="#3D3D3D"/>
<path d="M28.045 31.2654C28.535 31.6734 29.028 32.0834 29.528 32.4934C30.958 33.5964 32.29 34.5124 33.689 35.4124C32.809 34.6044 31.939 33.7794 31.084 32.9244C30.155 32.1424 29.081 31.7654 28.045 31.2654Z" fill="#3D3D3D"/>
<path d="M34.831 36.1354C34.442 35.8934 34.064 35.6534 33.689 35.4124C34.992 36.6094 36.317 37.7674 37.645 38.9154C39.963 40.6694 42.245 42.4614 44.645 44.1334C44.914 44.3274 45.174 44.5264 45.427 44.7294C41.716 40.8624 38.017 37.0074 33.93 34.6634C33.853 34.6224 33.772 34.5724 33.692 34.5264C35.269 36.0094 36.884 37.4234 38.503 38.8224C37.295 37.9104 36.079 37.0054 34.831 36.1354Z" fill="#3D3D3D"/>
<path d="M44.141 40.9624C44.249 41.0764 44.356 41.1894 44.464 41.3014C44.615 41.4064 44.765 41.5084 44.915 41.6104C44.844 41.5264 44.774 41.4424 44.703 41.3604C44.514 41.2274 44.328 41.0934 44.141 40.9624Z" fill="#3D3D3D"/>
<path d="M42.658 35.9023C42.646 35.8863 42.635 35.8693 42.622 35.8523C42.22 35.5293 41.817 35.1943 41.413 34.8543C40.774 34.4663 40.132 34.0373 39.503 33.5703C40.575 34.4843 41.638 35.3853 42.658 35.9023Z" fill="#3D3D3D"/>
<path d="M41.137 31.0652C41.022 30.9502 40.793 30.7212 40.678 30.6062C40.566 30.5782 40.455 30.5512 40.344 30.5222C40.448 30.6332 40.552 30.7462 40.655 30.8592L41.137 31.0652Z" fill="#3D3D3D"/>
<path d="M33.25 25.4143C35.552 27.1773 37.74 28.8003 39.913 30.4053C40.055 30.4463 40.199 30.4863 40.345 30.5233C39.12 29.2133 37.771 28.0413 36.226 27.2613C35.928 27.1013 35.376 26.9643 35.147 26.7353C33.996 25.7153 32.742 24.9013 31.512 24.0693C32.063 24.5033 32.624 24.9393 33.203 25.3773C33.218 25.3903 33.233 25.4023 33.25 25.4143Z" fill="#3D3D3D"/>
<path d="M6.75301 51.9641C6.64701 52.0711 6.54601 52.1711 6.54601 52.1711C6.56901 52.1941 6.593 52.2141 6.618 52.2361C6.67 52.1391 6.71401 52.0491 6.75301 51.9641Z" fill="#3D3D3D"/>
<path d="M6.12601 50.9312C6.10501 50.9532 6.083 50.9752 6.061 50.9962C6.087 51.0072 6.107 51.0242 6.129 51.0392C6.127 51.0042 6.12401 50.9692 6.12601 50.9312Z" fill="#3D3D3D"/>
<path d="M6.62 52.2381C6.889 52.4751 7.22801 52.6421 7.37601 53.0011C7.26101 53.1161 7.033 53.3441 6.918 53.4601C6.942 53.7131 7.19399 53.7361 7.33299 53.8751C7.21799 53.9901 7.104 54.1041 7.173 54.1731C7.279 54.4291 7.524 54.4261 7.789 54.2471C7.507 52.9771 8.487 51.4441 6.62 52.2381Z" fill="#3D3D3D"/>
<path d="M6.98 50.7693C6.779 50.9703 6.578 51.1713 6.377 51.3723C6.473 51.5933 6.54701 51.8373 6.76601 51.9353C6.96201 51.5063 7.019 51.1823 6.98 50.7693Z" fill="#3D3D3D"/>
<path d="M53.432 3.71722C53.39 3.67422 53.378 3.64222 53.544 3.60022C53.504 3.64122 53.469 3.67922 53.432 3.71722C53.47 3.75822 53.534 3.8092 53.508 3.8862C53.829 3.4082 54.222 2.8672 54.653 2.3912C54.638 2.2582 54.621 2.12722 54.599 2.00122C53.518 3.16422 52.396 4.28622 51.847 5.57422C52.496 4.92522 52.821 4.35722 53.432 3.71722Z" fill="#3D3D3D"/>
<path d="M54.269 1.49713C54.307 1.45713 54.342 1.41913 54.38 1.38013C54.215 1.42113 54.227 1.45413 54.269 1.49713Z" fill="#3D3D3D"/>
<path d="M35.832 23.0591C35.199 23.8111 34.831 24.6581 34.448 25.5041C35.556 24.0031 36.795 22.5671 37.526 21.3081C36.972 21.8971 36.409 22.4821 35.832 23.0591Z" fill="#3D3D3D"/>
<path d="M32.305 29.4721C33.291 28.7441 33.825 27.8641 34.265 26.9551C33.641 27.7041 33.018 28.4441 32.394 29.1771C32.364 29.2751 32.329 29.3741 32.305 29.4721Z" fill="#3D3D3D"/>
<path d="M32.824 28.0891C33.612 27.3081 34.039 26.4072 34.448 25.5042C33.821 26.3522 33.245 27.2201 32.824 28.0891Z" fill="#3D3D3D"/>
<path d="M42.003 6.20227C42.319 5.48627 42.544 5.08628 42.699 4.88528C42.681 4.71028 42.667 4.48727 42.659 4.19727C42.629 4.22727 42.597 4.25928 42.567 4.28928C42.159 4.94628 41.732 5.59927 41.291 6.25027C41.155 6.56127 41.036 6.86829 40.972 7.16129C41.322 6.84829 41.671 6.53027 42.003 6.20227Z" fill="#3D3D3D"/>
<path d="M42.699 4.8853C43.306 4.1043 42.854 6.3843 42.699 4.8853Z" fill="#3D3D3D"/>
<path d="M43.706 12.5652C43.68 12.5912 43.654 12.6182 43.628 12.6442C43.568 12.7362 43.505 12.8292 43.446 12.9212C43.534 12.8002 43.618 12.6842 43.706 12.5652Z" fill="#3D3D3D"/>
<path d="M35.361 16.9931C35.786 16.5131 36.19 16.0091 36.57 15.4971C35.724 16.4901 34.869 17.4891 34.306 18.4631C34.42 18.3491 34.605 18.303 34.719 18.188C34.811 17.82 35.016 17.3381 35.361 16.9931Z" fill="#3D3D3D"/>
<path d="M46.639 8.34311C45.568 9.76611 44.565 11.2101 43.628 12.6441C41.247 15.0761 39.091 17.5621 37.572 20.2121C36.291 22.6011 32.942 25.6731 32.213 28.6141C32.44 28.4461 32.642 28.2711 32.825 28.0891C32.65 28.4521 32.505 28.8151 32.394 29.1771C29.605 32.4471 26.78 35.5691 23.685 38.6641C23.226 39.1231 23.09 39.6751 22.631 40.1341C22.177 40.6091 21.734 41.0801 21.293 41.5501C21.307 41.5671 21.328 41.5771 21.356 41.5791C19.554 43.5561 17.832 45.5511 16.103 47.7351C15.255 48.7221 14.267 49.5711 13.35 50.4881C13.006 50.8321 12.729 50.5551 12.43 50.7161C11.167 51.2881 10.202 51.6991 9.032 52.5921C9.032 52.5921 8.89401 52.4531 8.82401 52.3841C8.68901 52.5661 8.545 52.7061 8.407 52.8001C8.124 51.5311 9.10501 49.9981 7.23801 50.7921C7.23701 50.7921 7.237 50.7911 7.236 50.7901C7.287 50.6941 7.33101 50.6051 7.37101 50.5181C7.37901 50.5101 7.38601 50.5031 7.39301 50.4961C7.39001 50.4941 7.38701 50.4911 7.38401 50.4901C7.58001 50.0611 7.63601 49.7381 7.59701 49.3241C7.39601 49.5251 7.19501 49.7261 6.99401 49.9271C6.93501 49.7921 6.863 49.6701 6.745 49.5941C6.744 49.5581 6.741 49.5231 6.743 49.4861C6.832 49.3971 6.907 49.3221 6.907 49.3221C6.883 49.2391 6.85101 49.1651 6.81301 49.0971C7.04201 48.2741 7.71601 47.2891 7.27001 47.1621C7.00001 47.1371 6.74301 47.6491 6.39501 48.1751C6.34201 48.1751 6.288 48.1821 6.239 48.1941C6.743 47.5521 5.755 47.7101 6.03 47.2971C6.489 46.8381 6.877 46.3101 7.336 45.8521C9.203 43.9851 10.708 42.3421 12.335 40.3011C12.407 40.2111 12.48 40.1231 12.552 40.0351C13.355 39.0591 14.18 38.2051 15.105 37.3881C15.097 37.4911 15.083 37.5941 15.066 37.6961C15.811 37.0401 16.528 36.3531 17.124 35.5461C18.567 33.5491 20.011 31.5531 21.776 29.6491C23.643 27.6711 25.35 25.6751 27.07 23.4921C26.427 24.4441 25.77 25.3801 24.999 26.2461C24.624 26.6061 24.255 26.9681 23.914 27.3381C24.305 26.9921 24.662 26.6261 24.999 26.2461C26.44 24.8611 27.975 23.4921 28.415 21.7541C28.59 21.6941 28.66 21.7631 28.774 21.6481C29.577 20.8451 30.449 20.1121 30.86 19.1471C30.791 19.0781 31.136 18.7331 30.883 18.7101C31.502 17.9531 32.305 17.1491 32.855 16.3241C33.108 15.9811 33.272 15.5521 33.407 15.0911C35.498 12.2591 37.559 9.45212 39.861 6.44812C40.454 5.72312 41.211 4.96012 41.878 4.29312C41.127 5.50512 40.307 6.70814 39.452 7.90714C38.405 8.85214 37.452 9.80711 37.021 10.9471C36.904 11.1961 36.784 11.4401 36.66 11.6811C37.614 10.4221 38.554 9.16613 39.452 7.90714C40.07 7.34813 40.72 6.79311 41.314 6.20511C41.307 6.22211 41.301 6.23813 41.293 6.25513C40.919 6.80813 40.535 7.35911 40.143 7.90811C39.212 8.74911 38.356 9.59711 37.875 10.5761C37.815 10.6981 37.759 10.8231 37.712 10.9491C37.596 11.1971 37.475 11.4421 37.35 11.6821C37.939 10.9061 38.521 10.1291 39.092 9.35413C39.446 8.87313 39.798 8.39211 40.143 7.90811C40.417 7.66111 40.697 7.41312 40.974 7.16412C40.963 7.20912 40.951 7.25511 40.945 7.30011C40.783 7.59911 40.954 9.05412 41.505 8.91812C43.253 7.13512 45.402 4.32913 45.471 4.39813C45.862 4.56113 43.199 7.94911 43.383 7.90411C43.584 7.76611 43.779 7.62213 43.971 7.47513C43.866 7.69213 43.767 7.90713 43.687 8.11813C43.412 8.53113 42.884 8.92112 42.793 9.28912C42.406 10.5061 41.35 11.2861 40.708 12.4791C40.342 13.2611 39.931 14.2251 39.52 15.1901C39.658 15.3281 39.244 15.6041 39.498 15.6281C38.851 16.2751 38.102 17.0241 38.228 17.7051C38.216 17.7251 38.204 17.7441 38.192 17.7631C38.146 17.8091 38.104 17.8971 38.067 17.9971C36.919 19.0031 36.552 20.1381 35.841 21.3801C35.541 21.7511 35.222 22.1161 34.871 22.4671C35.101 22.2371 35.513 21.9631 35.674 21.6641C35.731 21.5691 35.787 21.4741 35.841 21.3801C36.62 20.4181 37.264 19.4051 37.942 18.4281C37.969 18.3191 38.012 18.1451 38.067 17.9971C38.13 17.9411 38.194 17.8851 38.262 17.8321C38.248 17.7891 38.237 17.7471 38.229 17.7051C38.822 16.7151 39.647 15.7481 40.118 14.8701C41.154 13.3621 42.627 12.1211 43.965 10.8631C43.435 11.6241 42.923 12.3871 42.432 13.1451C43.097 12.2441 43.716 11.3861 44.304 10.5401C44.417 10.4311 44.527 10.3241 44.637 10.2141L45.326 9.52512C45.081 9.70912 44.846 9.89811 44.614 10.0891C44.962 9.58111 45.302 9.07511 45.627 8.56711C47.603 5.94411 49.808 3.40313 52.243 1.18213C52.282 1.31213 52.313 1.44811 52.338 1.58911C51.257 2.75211 50.136 3.87413 49.587 5.16113C50.235 4.51313 50.561 3.94411 51.172 3.30511C51.211 3.34511 51.274 3.39612 51.248 3.47412C51.569 2.99612 51.962 2.45413 52.394 1.97913C52.428 2.30313 52.442 2.64313 52.457 2.98413C52.365 3.35213 52.022 3.69613 51.746 4.10913C50.377 5.71713 48.939 7.08411 47.64 8.71811C46.308 9.99711 44.978 11.2751 43.71 12.5671C44.782 11.0981 45.752 9.73111 46.639 8.34311ZM9.965 48.6331C10.054 48.4871 10.142 48.3311 10.226 48.1731C10.192 48.1761 10.158 48.1791 10.123 48.1791C10.013 48.2901 9.967 48.4641 9.965 48.6331ZM12.714 46.0171C11.807 46.6851 10.929 47.8811 10.035 48.9901C10.048 49.0151 10.063 49.0361 10.079 49.0521C10.984 48.2751 11.848 47.0731 12.714 46.0171ZM17.296 44.3081C17.282 44.3061 17.268 44.3061 17.254 44.3041C17.265 44.3141 17.277 44.3241 17.287 44.3341C17.29 44.3251 17.293 44.3161 17.296 44.3081ZM29.066 28.1291C28.494 29.3921 27.347 30.5391 26.339 31.8251C25.995 32.1691 25.928 32.7891 25.469 33.2481C24.964 33.8901 24.759 34.3731 24.369 34.9011L24.852 34.6951C23.98 35.4301 23.936 36.3031 22.995 36.9671C23.064 37.0361 23.088 37.2891 22.974 37.4041C22.47 38.0461 21.757 38.4821 21.437 39.0791C20.933 39.7221 20.36 40.2941 20.039 40.8921C19.924 41.0071 19.903 41.4441 19.742 41.7431C19.49 42.0511 19.228 42.3481 18.967 42.6471C18.998 42.6531 19.028 42.6601 19.057 42.6681C19.288 42.4431 19.512 42.2041 19.696 41.9271C20.246 41.1001 20.91 40.1591 21.529 39.4021C23.112 37.5431 24.441 35.6601 25.769 33.7791C26.044 33.3661 26.25 32.8831 26.525 32.4711C27.281 31.1621 28.612 29.9691 28.815 28.7981C28.86 28.6121 29.09 28.3831 29.066 28.1291ZM27.35 23.8491C26.435 25.3531 25.229 26.8261 24.03 27.9101C23.112 28.8281 20.89 31.8801 22.179 32.2511C21.807 29.6081 29.732 24.6371 27.35 23.8491ZM35.645 13.0111C35.273 13.6001 34.907 14.1631 34.361 14.7091C34.788 14.1411 35.216 13.5761 35.645 13.0111ZM33.577 20.7141C34.584 18.7391 36.119 17.0641 37.334 15.2971C38.274 13.9421 39.881 13.0271 40.428 11.5111C40.359 11.4421 40.29 11.3731 40.22 11.3031L40.175 11.4871C39.731 11.8491 39.296 12.0631 38.901 12.3421C38.914 12.3161 38.929 12.2911 38.942 12.2651C38.912 12.3031 38.882 12.3401 38.851 12.3781C38.59 12.5681 38.347 12.7921 38.132 13.1151C38.042 13.2721 37.949 13.4301 37.853 13.5871C36.542 15.1431 35.169 16.7291 34.306 18.4631C33.71 19.4731 33.369 20.5071 32.773 21.5171C33.003 21.2881 33.417 21.0121 33.577 20.7141Z" fill="#3D3D3D"/>
<path d="M44.36 10.2982C44.771 9.71819 45.19 9.13918 45.623 8.56418C45.926 8.09018 46.221 7.61317 46.506 7.12817C47.977 4.91717 50.252 2.89119 52.063 0.747192C51.918 0.485192 51.718 0.271174 51.432 0.128174C49.059 2.05017 47.282 4.56818 45.021 6.59918C45.012 6.62318 45.001 6.64717 44.993 6.67117C44.49 8.00417 42.861 9.35718 42.06 10.8492C41.328 12.4102 40.319 13.6962 39.519 15.1882C41.176 13.5302 42.602 11.8062 44.36 10.2982Z" fill="#3D3D3D"/>
<path d="M34.265 26.9553C34.673 26.4653 35.083 25.9723 35.493 25.4723C36.596 24.0423 37.512 22.7103 38.412 21.3113C37.604 22.1903 36.779 23.0613 35.924 23.9163C35.142 24.8453 34.765 25.9193 34.265 26.9553Z" fill="#3D3D3D"/>
<path d="M39.135 20.1693C38.893 20.5583 38.653 20.9362 38.412 21.3112C39.609 20.0072 40.767 18.6833 41.915 17.3553C43.669 15.0373 45.461 12.7553 47.133 10.3553C47.327 10.0863 47.526 9.82624 47.729 9.57324C43.862 13.2842 40.006 16.9833 37.663 21.0703C37.622 21.1473 37.572 21.2283 37.526 21.3083C39.009 19.7313 40.422 18.1163 41.822 16.4973C40.91 17.7053 40.005 18.9213 39.135 20.1693Z" fill="#3D3D3D"/>
<path d="M43.962 10.8592C44.076 10.7512 44.189 10.6442 44.3 10.5362C44.405 10.3852 44.508 10.2352 44.61 10.0852C44.526 10.1562 44.442 10.2262 44.36 10.2972C44.227 10.4862 44.093 10.6722 43.962 10.8592Z" fill="#3D3D3D"/>
<path d="M38.902 12.3423C38.886 12.3543 38.869 12.3653 38.852 12.3783C38.529 12.7803 38.194 13.1833 37.854 13.5873C37.466 14.2263 37.037 14.8683 36.57 15.4973C37.484 14.4253 38.385 13.3623 38.902 12.3423Z" fill="#3D3D3D"/>
<path d="M34.065 13.8633C33.95 13.9783 33.721 14.2073 33.606 14.3223C33.578 14.4343 33.551 14.5453 33.522 14.6563C33.633 14.5523 33.746 14.4483 33.859 14.3453L34.065 13.8633Z" fill="#3D3D3D"/>
<path d="M28.414 21.7503C30.177 19.4483 31.8 17.2603 33.405 15.0873C33.447 14.9453 33.486 14.8013 33.523 14.6553C32.213 15.8803 31.041 17.2293 30.261 18.7743C30.101 19.0723 29.964 19.6243 29.735 19.8533C28.715 21.0043 27.901 22.2583 27.069 23.4883C27.503 22.9373 27.939 22.3763 28.377 21.7983C28.39 21.7823 28.402 21.7673 28.414 21.7503Z" fill="#3D3D3D"/>
</svg>
