<svg width="745" height="745" viewBox="0 0 745 745" fill="none" xmlns="http://www.w3.org/2000/svg">
<path d="M420.801 1.02763C419.505 2.67422 353.552 6.15034 339.583 5.41853C325.327 4.50376 299.839 5.78444 296.239 7.43102C294.223 8.52875 291.055 9.26056 289.039 9.26056C287.167 9.26056 284.431 9.99238 282.991 10.9071C279.247 13.4685 261.678 16.9446 249.87 17.6764C243.966 17.8594 237.198 18.9571 234.75 19.8719C232.158 20.7867 225.966 21.3355 220.782 21.1526C215.598 20.9696 210.126 21.5185 208.542 22.2503C204.798 23.8969 185.357 26.2753 172.541 26.6412C167.069 26.8241 144.605 27.556 122.716 28.2878C94.924 29.3855 81.9638 29.2026 79.9478 27.7389C77.7878 26.2753 75.1957 26.4582 70.0117 28.2878C66.2676 29.7514 59.2115 32.3128 54.4595 33.9594C49.7074 35.6059 42.9393 38.7162 39.3392 40.9116C35.8832 43.1071 32.2831 44.9366 31.5631 44.9366C29.1151 44.9366 28.9711 50.6082 31.1311 53.5354C32.8592 55.7309 33.0032 56.8286 31.2751 60.6706C30.2671 63.049 29.8351 66.8911 30.2671 69.0865C30.6991 71.282 29.9791 75.6729 28.8271 78.6001C27.5311 81.8933 27.2431 84.6376 27.9631 85.3694C28.6831 85.9183 29.2591 89.0285 29.2591 92.1387C29.2591 95.4319 29.8351 100.738 30.5551 103.848C31.7071 108.605 31.4191 110.617 29.1151 114.276C27.2431 117.386 26.9551 119.033 28.1071 119.399C29.2591 119.948 28.8271 122.692 26.6671 128.364C24.939 132.937 23.211 139.158 22.923 142.268C22.779 145.378 21.483 149.769 20.043 152.148C18.747 154.526 17.7389 160.015 17.7389 164.406C17.7389 168.614 16.8749 174.102 15.7229 176.298C14.5709 178.493 13.2749 183.982 12.6989 188.556C11.4029 202.277 11.1148 203.558 8.95482 205.753C6.21878 208.497 5.64277 220.207 6.65079 252.589C6.79479 256.066 6.36278 260.822 5.78677 262.835C4.92276 265.945 5.35477 267.043 7.8028 267.775C9.38682 268.323 10.5388 269.604 10.1068 270.336C8.95482 272.531 11.9789 283.326 15.2909 289.18C18.1709 294.486 18.459 299.792 16.0109 306.927C15.1469 309.671 14.1389 314.062 13.9949 316.623C13.7069 319.002 10.5388 324.673 6.93879 329.064C-0.11731 338.029 -0.261311 338.578 2.18672 350.287C3.62674 357.056 3.48274 359.435 1.89872 363.277C0.314697 367.119 0.314697 368.399 1.61071 369.497C2.61873 370.229 3.48274 372.424 3.48274 374.437C3.33874 376.266 3.33874 380.657 3.33874 384.133C3.19474 387.427 3.91475 391.269 4.63476 392.183C5.49877 393.281 6.21878 395.842 6.21878 398.038C6.21878 400.05 7.8028 404.807 9.96283 408.649C13.2749 414.87 13.4189 415.784 11.4029 418.346C8.23481 422.371 8.52281 424.383 12.5549 425.664C15.1469 426.396 16.1549 428.225 16.8749 433.897C17.3069 437.739 18.459 441.032 19.323 441.032C20.187 441.032 20.331 442.13 19.467 443.959C18.747 445.789 18.603 449.814 19.323 453.656C20.187 458.413 19.899 460.974 18.3149 463.169C17.1629 464.816 15.7229 469.207 15.2909 472.866C14.5709 478.538 14.8589 479.452 17.4509 479.452C20.763 479.452 26.9551 494.272 28.5391 506.347C29.4031 512.75 28.9711 514.58 26.0911 518.239C21.771 523.544 18.891 530.68 19.755 533.607C20.187 534.887 19.467 536.9 18.3149 537.998C17.1629 539.278 16.2989 541.108 16.2989 542.023C16.2989 542.937 14.8589 546.048 13.2749 548.975C11.5469 551.902 10.2508 556.476 10.3948 559.403C10.5388 562.148 10.6828 566.904 10.6828 569.649C10.6828 572.576 11.5469 576.784 12.6989 578.979C16.1549 585.383 16.8749 596.177 14.2829 601.117C11.1148 607.337 11.4029 608.984 16.1549 612.643C19.467 615.204 20.043 616.485 19.035 619.046C18.0269 621.059 18.3149 623.803 19.755 627.462C20.907 630.207 21.627 633.134 21.195 633.683C20.763 634.232 21.483 637.708 22.635 641.367C23.931 645.026 24.507 648.868 24.219 649.783C23.787 650.514 23.067 658.381 22.635 666.98C22.059 681.617 22.203 683.263 25.9471 691.679C28.1071 696.802 30.8431 700.827 31.8511 700.827C33.0032 700.827 33.2912 702.29 32.7152 705.401C31.7071 710.34 34.8752 721.135 37.1792 720.586C37.8992 720.403 40.4913 721.318 42.9393 722.598C46.5393 724.611 48.6994 724.062 60.2195 718.939C77.7878 711.072 88.8759 709.609 178.877 704.486C206.814 703.022 214.302 703.022 215.166 704.852C215.742 706.132 216.75 706.498 217.326 705.949C217.758 705.218 220.062 705.767 222.366 707.23C225.102 709.06 231.15 709.974 241.23 709.974C249.438 710.157 258.942 711.072 262.542 711.987C266.142 713.085 273.631 714.548 279.103 715.463C284.719 716.195 291.487 717.659 294.223 718.756C299.263 720.769 366.08 722.232 404.384 721.135C429.585 720.586 469.041 723.879 476.817 727.355C482.145 729.734 486.322 729.916 506.05 728.087C525.49 726.44 531.25 726.623 541.618 728.819C563.795 733.758 649.188 737.601 687.78 735.405C699.588 734.673 700.74 735.039 703.189 738.881C706.501 743.821 713.557 746.016 715.717 742.54C717.733 739.43 720.469 724.428 720.469 716.927C720.469 713.634 721.621 708.328 723.061 705.035C731.557 685.276 734.149 680.702 738.613 677.958C744.661 674.298 746.245 667.712 743.077 660.577C741.781 657.833 741.061 655.088 741.637 654.356C742.069 653.808 741.349 651.612 739.909 649.6C737.605 646.489 737.317 643.196 737.605 630.207C737.749 621.608 738.469 612.826 739.045 610.63C739.765 608.252 740.053 604.044 739.765 601.117C739.477 598.007 739.333 591.42 739.477 586.48C740.197 554.098 740.053 552.085 734.005 538.729C726.805 522.447 725.077 516.775 724.933 508.359C724.789 504.517 723.925 500.858 722.773 500.126C720.469 498.48 718.597 472.134 720.901 472.134C721.765 472.134 721.765 471.219 720.757 469.756C719.317 467.56 720.757 448.716 722.629 444.691C723.205 443.593 723.925 435.909 724.357 427.676C724.645 419.443 725.365 406.454 725.797 398.953C727.093 374.62 727.237 366.021 726.373 366.021C725.941 366.021 725.509 361.264 725.365 355.41C725.221 346.079 724.213 337.663 722.773 332.174C721.189 326.32 724.645 301.621 728.533 291.742C731.845 282.96 732.709 278.203 732.997 266.311C733.285 258.261 734.293 239.783 735.301 225.146C737.173 198.252 736.453 179.042 733.285 172.639C731.989 169.894 732.277 167.699 734.581 161.844C737.029 155.807 737.173 153.428 736.021 145.561C735.301 140.439 734.437 130.559 734.293 123.607C734.005 116.472 733.429 104.58 732.853 96.8955C731.989 84.2717 732.277 82.8081 735.013 79.5149C736.741 77.6854 738.901 74.0263 739.909 71.4649C742.357 65.2445 741.493 47.498 738.613 44.7536C737.317 43.6559 736.309 41.8264 736.309 40.7287C736.309 37.0696 726.085 34.5082 702.469 32.3128C700.164 32.1298 695.556 31.0321 692.388 29.9344C684.18 26.8241 671.508 25.1776 655.38 25.1776C645.156 25.1776 641.7 24.6287 642.132 22.9821C642.852 20.6037 634.212 17.6764 616.355 14.5662C605.267 12.7367 594.611 13.6515 591.443 16.7617C590.435 17.8594 589.283 17.4935 588.275 16.2128C587.267 14.5662 581.219 13.6515 569.699 13.2856C560.339 12.9196 548.818 11.8219 544.066 10.7242C534.706 8.52875 528.082 8.52875 516.706 10.3583C510.946 11.2731 508.93 10.9071 507.49 8.52875C506.338 6.69921 503.17 5.60148 499.57 5.41853C496.402 5.23557 492.082 4.68671 490.066 3.9549C488.05 3.22308 483.585 3.58899 479.985 4.68671C474.945 6.3333 472.353 6.3333 468.465 4.50376C461.553 1.39354 455.505 1.39354 452.625 4.68671C450.465 7.06511 449.889 7.06511 447.153 3.77194C443.697 -0.253046 440.241 -0.984863 439.377 2.30831C438.945 3.77194 437.793 3.9549 435.921 2.85717C433.041 1.21059 421.665 -0.253046 420.801 1.02763Z" fill="#444444"/>
</svg>
