<svg width="825" height="825" viewBox="0 0 825 825" fill="none" xmlns="http://www.w3.org/2000/svg">
<g filter="url(#filter0_dd_36451_7)">
<path d="M153.852 42.1278C152.645 43.2474 146.153 45.2625 139.51 46.3821C123.81 49.5167 122.602 49.9646 121.394 51.7558C120.79 52.6514 117.62 53.3232 114.45 53.3232C110.675 53.3232 107.656 54.8905 105.693 57.8013C104.033 60.2643 102.674 61.8316 102.674 61.1599C102.674 60.7121 100.862 61.1599 98.7488 62.2794C96.4843 63.6229 94.0688 63.8468 93.012 62.7273C90.2946 59.5926 67.9512 59.3686 67.9512 62.2794C67.9512 63.8468 66.1396 64.2946 63.1202 63.6229C60.4028 62.9512 57.5344 63.399 56.6286 64.2946C55.8737 65.4141 52.0995 66.7576 48.3253 67.4293C44.5511 68.101 41.3808 68.7727 41.2298 68.7727C39.5691 69.4445 41.5317 75.9378 44.5511 80.192C46.6647 83.1028 48.3253 87.5809 48.3253 90.0439C48.3253 92.7308 49.684 98.1045 51.3447 102.135C54.2131 109.3 54.817 118.48 52.4015 121.839C50.4389 124.973 51.3447 138.632 54.2131 149.155C55.8737 154.977 57.5344 162.59 58.1383 166.396C58.7422 169.979 60.2518 174.905 61.4596 177.144C62.8183 179.159 63.5732 181.622 62.9693 182.293C61.7615 184.309 66.7435 204.236 69.159 206.923C70.5177 208.267 71.1216 210.954 70.5177 212.745C70.0648 214.76 70.3667 220.134 70.9706 224.836C72.0274 231.105 71.8764 234.24 70.5177 235.807C69.4609 236.927 68.5551 242.524 68.4041 248.122C68.2532 257.974 67.4983 269.841 65.8377 290.664C65.3848 296.486 66.1396 306.786 67.4983 315.07C69.6119 327.385 69.6119 329.848 67.8003 331.863C63.2712 337.013 61.7615 341.715 63.1202 345.969C63.8751 348.208 65.5357 353.134 66.8945 357.165C68.2532 361.195 68.5551 364.554 67.8003 365.001C66.8945 365.449 67.1964 368.36 68.5551 372.166C69.7629 375.749 70.3667 379.779 69.9138 381.347C69.6119 383.138 70.6687 385.377 72.3293 386.72C73.99 388.064 75.0468 390.527 74.5939 392.318C74.141 394.109 75.0468 396.796 76.5565 398.364C80.9345 403.066 81.9913 406.872 79.8778 410.678C78.972 412.47 78.519 414.485 78.972 415.381C79.5758 416.052 79.2739 418.067 78.519 419.411C76.2545 423.441 75.3487 458.818 77.3113 462.625C79.1229 465.76 79.8778 472.701 80.6326 490.613C80.7836 496.435 81.8404 502.48 82.7462 503.824C83.8029 505.391 84.5578 508.302 84.5578 510.541C84.5578 513.9 86.2184 520.617 91.0494 536.29C91.8043 538.753 91.9553 542.112 91.5023 543.455C90.8985 544.799 90.8985 547.262 91.6533 548.605C93.4649 553.083 93.6159 566.294 91.8043 576.817C90.5965 583.535 90.5965 588.013 91.8043 591.595C93.012 595.626 92.8611 597.641 91.2004 600.104C89.3888 602.567 89.3888 604.806 90.5965 609.508C92.8611 618.464 92.5591 619.807 87.5772 622.27C82.2933 625.181 82.4442 624.286 85.1617 632.346C86.3694 635.705 87.1243 639.287 86.8223 640.183C86.3694 641.079 87.1243 642.87 88.332 644.437C89.5398 646.005 90.5965 648.915 90.5965 650.93C90.5965 655.185 92.5591 662.126 98.5979 679.814C100.862 686.532 102.674 694.145 102.674 696.831C102.674 699.742 103.58 704.892 104.788 708.475C106.146 712.057 106.75 719.222 106.599 724.82C106.297 730.194 106.599 737.359 107.203 740.941C108.26 746.091 107.807 747.658 104.939 750.569C96.3333 758.854 100.108 767.138 117.167 776.99C125.47 781.692 128.037 782.14 153.249 781.692C168.194 781.468 185.556 780.125 191.746 779.005C218.467 773.631 291.989 769.377 345.734 769.825C413.066 770.497 412.16 770.721 422.275 765.571C433.144 760.197 441.75 759.525 443.41 764.003C445.071 768.258 463.187 781.692 464.999 779.901C465.754 779.229 466.508 779.453 466.508 780.573C466.508 786.842 484.625 784.827 506.515 776.318C513.158 773.631 561.619 773.408 594.832 775.87C606.909 776.766 621.1 777.214 626.535 777.214C652.351 776.542 659.597 776.542 688.432 777.438C705.492 777.886 726.627 777.214 735.384 775.87C749.273 773.855 752.292 774.079 759.84 777.662C767.993 781.468 768.597 781.468 771.314 777.886C774.937 772.96 777.806 755.495 776.598 745.195C776.145 740.941 775.541 724.148 775.39 708.251C775.239 680.486 775.088 678.695 771.163 670.186C766.785 660.782 765.879 651.602 768.597 644.213C769.502 641.75 770.257 632.346 770.257 623.39C770.257 608.164 770.71 606.149 775.39 597.417C778.259 592.043 780.523 586.221 780.674 584.206C780.674 582.191 781.127 578.609 781.429 576.146C782.939 566.07 783.543 545.246 782.335 542.783C780.07 538.529 779.315 528.23 780.674 519.273C784.448 494.42 785.656 467.327 783.694 454.564C781.429 440.906 780.674 434.636 779.617 416.052C779.014 407.992 778.108 400.379 777.655 399.259C777.051 397.916 776.447 390.751 776.145 383.138C775.843 371.943 776.598 366.345 779.919 355.597C782.033 348.208 783.543 340.148 783.09 337.685C782.637 335.222 782.788 332.759 783.392 332.311C784.901 330.968 783.694 273.2 782.033 264.915C781.278 261.109 780.221 251.929 779.768 244.316C779.014 233.792 777.806 228.866 774.786 224.164C771.465 218.79 771.012 216.103 771.163 203.341C771.314 195.28 770.71 187.219 769.955 185.428C769.05 183.189 769.653 180.502 772.069 176.472C776.598 169.307 780.372 150.723 779.617 140.647C779.164 136.393 778.712 128.78 778.41 123.854C778.108 119.152 777.202 114.674 776.145 114.226C775.239 113.778 774.484 111.987 774.484 110.195C774.484 108.404 773.428 106.389 772.22 105.493C770.861 104.822 768.899 101.463 767.691 98.1045C764.219 88.0287 761.048 84.4462 756.972 86.0136C754.859 86.9092 751.839 86.0136 749.877 84.2223C748.065 82.4311 743.385 79.7442 739.46 78.4007C735.686 76.8334 730.553 74.5943 728.137 73.2509C721.193 68.9966 719.532 68.7727 680.884 68.101C660.503 67.8771 640.877 66.5337 637.103 65.1902C628.196 61.8316 582.301 62.0555 580.943 65.1902C580.339 66.7576 579.282 66.7576 577.923 65.4141C575.055 62.0555 569.167 62.0555 569.167 65.1902C569.167 67.2054 566.148 68.101 560.26 68.3249C552.863 68.7727 550.296 67.6532 545.616 63.1751C539.879 57.3535 529.915 54.2188 529.915 58.2491C529.915 59.5926 529.009 60.0404 527.953 59.3686C526.745 58.6969 522.669 59.1447 518.593 60.2643C514.516 61.3838 510.893 61.6077 510.44 60.4882C509.987 59.5926 506.213 58.9208 501.986 59.1447C497.91 59.3686 492.475 58.0252 490.211 56.234C486.285 53.3232 484.474 53.5471 472.094 58.0252C461.225 61.8316 452.77 63.1751 433.295 63.6229C419.557 64.0707 397.214 64.9663 383.476 65.638C369.738 66.3098 347.092 67.2054 332.901 67.6532C318.861 68.101 302.104 68.5488 295.914 68.9966C289.724 69.2205 282.176 68.7727 279.307 68.101C266.475 65.1902 221.335 66.5337 217.561 70.1162C215.75 71.6835 195.218 60.2643 188.273 53.9949C184.197 50.1885 179.517 48.3972 171.667 47.7255C164.42 46.8299 160.193 45.4864 159.136 43.2474C157.174 39.4409 157.023 39.4409 153.852 42.1278Z" fill="#F3E8A5"/>
<path d="M153.852 42.1278C152.645 43.2474 146.153 45.2625 139.51 46.3821C123.81 49.5167 122.602 49.9646 121.394 51.7558C120.79 52.6514 117.62 53.3232 114.45 53.3232C110.675 53.3232 107.656 54.8905 105.693 57.8013C104.033 60.2643 102.674 61.8316 102.674 61.1599C102.674 60.7121 100.862 61.1599 98.7488 62.2794C96.4843 63.6229 94.0688 63.8468 93.012 62.7273C90.2946 59.5926 67.9512 59.3686 67.9512 62.2794C67.9512 63.8468 66.1396 64.2946 63.1202 63.6229C60.4028 62.9512 57.5344 63.399 56.6286 64.2946C55.8737 65.4141 52.0995 66.7576 48.3253 67.4293C44.5511 68.101 41.3808 68.7727 41.2298 68.7727C39.5691 69.4445 41.5317 75.9378 44.5511 80.192C46.6647 83.1028 48.3253 87.5809 48.3253 90.0439C48.3253 92.7308 49.684 98.1045 51.3447 102.135C54.2131 109.3 54.817 118.48 52.4015 121.839C50.4389 124.973 51.3447 138.632 54.2131 149.155C55.8737 154.977 57.5344 162.59 58.1383 166.396C58.7422 169.979 60.2518 174.905 61.4596 177.144C62.8183 179.159 63.5732 181.622 62.9693 182.293C61.7615 184.309 66.7435 204.236 69.159 206.923C70.5177 208.267 71.1216 210.954 70.5177 212.745C70.0648 214.76 70.3667 220.134 70.9706 224.836C72.0274 231.105 71.8764 234.24 70.5177 235.807C69.4609 236.927 68.5551 242.524 68.4041 248.122C68.2532 257.974 67.4983 269.841 65.8377 290.664C65.3848 296.486 66.1396 306.786 67.4983 315.07C69.6119 327.385 69.6119 329.848 67.8003 331.863C63.2712 337.013 61.7615 341.715 63.1202 345.969C63.8751 348.208 65.5357 353.134 66.8945 357.165C68.2532 361.195 68.5551 364.554 67.8003 365.001C66.8945 365.449 67.1964 368.36 68.5551 372.166C69.7629 375.749 70.3667 379.779 69.9138 381.347C69.6119 383.138 70.6687 385.377 72.3293 386.72C73.99 388.064 75.0468 390.527 74.5939 392.318C74.141 394.109 75.0468 396.796 76.5565 398.364C80.9345 403.066 81.9913 406.872 79.8778 410.678C78.972 412.47 78.519 414.485 78.972 415.381C79.5758 416.052 79.2739 418.067 78.519 419.411C76.2545 423.441 75.3487 458.818 77.3113 462.625C79.1229 465.76 79.8778 472.701 80.6326 490.613C80.7836 496.435 81.8404 502.48 82.7462 503.824C83.8029 505.391 84.5578 508.302 84.5578 510.541C84.5578 513.9 86.2184 520.617 91.0494 536.29C91.8043 538.753 91.9553 542.112 91.5023 543.455C90.8985 544.799 90.8985 547.262 91.6533 548.605C93.4649 553.083 93.6159 566.294 91.8043 576.817C90.5965 583.535 90.5965 588.013 91.8043 591.595C93.012 595.626 92.8611 597.641 91.2004 600.104C89.3888 602.567 89.3888 604.806 90.5965 609.508C92.8611 618.464 92.5591 619.807 87.5772 622.27C82.2933 625.181 82.4442 624.286 85.1617 632.346C86.3694 635.705 87.1243 639.287 86.8223 640.183C86.3694 641.079 87.1243 642.87 88.332 644.437C89.5398 646.005 90.5965 648.915 90.5965 650.93C90.5965 655.185 92.5591 662.126 98.5979 679.814C100.862 686.532 102.674 694.145 102.674 696.831C102.674 699.742 103.58 704.892 104.788 708.475C106.146 712.057 106.75 719.222 106.599 724.82C106.297 730.194 106.599 737.359 107.203 740.941C108.26 746.091 107.807 747.658 104.939 750.569C96.3333 758.854 100.108 767.138 117.167 776.99C125.47 781.692 128.037 782.14 153.249 781.692C168.194 781.468 185.556 780.125 191.746 779.005C218.467 773.631 291.989 769.377 345.734 769.825C413.066 770.497 412.16 770.721 422.275 765.571C433.144 760.197 441.75 759.525 443.41 764.003C445.071 768.258 463.187 781.692 464.999 779.901C465.754 779.229 466.508 779.453 466.508 780.573C466.508 786.842 484.625 784.827 506.515 776.318C513.158 773.631 561.619 773.408 594.832 775.87C606.909 776.766 621.1 777.214 626.535 777.214C652.351 776.542 659.597 776.542 688.432 777.438C705.492 777.886 726.627 777.214 735.384 775.87C749.273 773.855 752.292 774.079 759.84 777.662C767.993 781.468 768.597 781.468 771.314 777.886C774.937 772.96 777.806 755.495 776.598 745.195C776.145 740.941 775.541 724.148 775.39 708.251C775.239 680.486 775.088 678.695 771.163 670.186C766.785 660.782 765.879 651.602 768.597 644.213C769.502 641.75 770.257 632.346 770.257 623.39C770.257 608.164 770.71 606.149 775.39 597.417C778.259 592.043 780.523 586.221 780.674 584.206C780.674 582.191 781.127 578.609 781.429 576.146C782.939 566.07 783.543 545.246 782.335 542.783C780.07 538.529 779.315 528.23 780.674 519.273C784.448 494.42 785.656 467.327 783.694 454.564C781.429 440.906 780.674 434.636 779.617 416.052C779.014 407.992 778.108 400.379 777.655 399.259C777.051 397.916 776.447 390.751 776.145 383.138C775.843 371.943 776.598 366.345 779.919 355.597C782.033 348.208 783.543 340.148 783.09 337.685C782.637 335.222 782.788 332.759 783.392 332.311C784.901 330.968 783.694 273.2 782.033 264.915C781.278 261.109 780.221 251.929 779.768 244.316C779.014 233.792 777.806 228.866 774.786 224.164C771.465 218.79 771.012 216.103 771.163 203.341C771.314 195.28 770.71 187.219 769.955 185.428C769.05 183.189 769.653 180.502 772.069 176.472C776.598 169.307 780.372 150.723 779.617 140.647C779.164 136.393 778.712 128.78 778.41 123.854C778.108 119.152 777.202 114.674 776.145 114.226C775.239 113.778 774.484 111.987 774.484 110.195C774.484 108.404 773.428 106.389 772.22 105.493C770.861 104.822 768.899 101.463 767.691 98.1045C764.219 88.0287 761.048 84.4462 756.972 86.0136C754.859 86.9092 751.839 86.0136 749.877 84.2223C748.065 82.4311 743.385 79.7442 739.46 78.4007C735.686 76.8334 730.553 74.5943 728.137 73.2509C721.193 68.9966 719.532 68.7727 680.884 68.101C660.503 67.8771 640.877 66.5337 637.103 65.1902C628.196 61.8316 582.301 62.0555 580.943 65.1902C580.339 66.7576 579.282 66.7576 577.923 65.4141C575.055 62.0555 569.167 62.0555 569.167 65.1902C569.167 67.2054 566.148 68.101 560.26 68.3249C552.863 68.7727 550.296 67.6532 545.616 63.1751C539.879 57.3535 529.915 54.2188 529.915 58.2491C529.915 59.5926 529.009 60.0404 527.953 59.3686C526.745 58.6969 522.669 59.1447 518.593 60.2643C514.516 61.3838 510.893 61.6077 510.44 60.4882C509.987 59.5926 506.213 58.9208 501.986 59.1447C497.91 59.3686 492.475 58.0252 490.211 56.234C486.285 53.3232 484.474 53.5471 472.094 58.0252C461.225 61.8316 452.77 63.1751 433.295 63.6229C419.557 64.0707 397.214 64.9663 383.476 65.638C369.738 66.3098 347.092 67.2054 332.901 67.6532C318.861 68.101 302.104 68.5488 295.914 68.9966C289.724 69.2205 282.176 68.7727 279.307 68.101C266.475 65.1902 221.335 66.5337 217.561 70.1162C215.75 71.6835 195.218 60.2643 188.273 53.9949C184.197 50.1885 179.517 48.3972 171.667 47.7255C164.42 46.8299 160.193 45.4864 159.136 43.2474C157.174 39.4409 157.023 39.4409 153.852 42.1278Z" fill="url(#paint0_radial_36451_7)" fill-opacity="0.2"/>
</g>
<defs>
<filter id="filter0_dd_36451_7" x="0.623535" y="0.234375" width="824" height="824" filterUnits="userSpaceOnUse" color-interpolation-filters="sRGB">
<feFlood flood-opacity="0" result="BackgroundImageFix"/>
<feColorMatrix in="SourceAlpha" type="matrix" values="0 0 0 0 0 0 0 0 0 0 0 0 0 0 0 0 0 0 127 0" result="hardAlpha"/>
<feOffset dx="20" dy="20"/>
<feGaussianBlur stdDeviation="10"/>
<feComposite in2="hardAlpha" operator="out"/>
<feColorMatrix type="matrix" values="0 0 0 0 0.952941 0 0 0 0 0.909804 0 0 0 0 0.647059 0 0 0 1 0"/>
<feBlend mode="normal" in2="BackgroundImageFix" result="effect1_dropShadow_36451_7"/>
<feColorMatrix in="SourceAlpha" type="matrix" values="0 0 0 0 0 0 0 0 0 0 0 0 0 0 0 0 0 0 127 0" result="hardAlpha"/>
<feOffset dx="-20" dy="-20"/>
<feGaussianBlur stdDeviation="10"/>
<feComposite in2="hardAlpha" operator="out"/>
<feColorMatrix type="matrix" values="0 0 0 0 0.952941 0 0 0 0 0.909804 0 0 0 0 0.647059 0 0 0 1 0"/>
<feBlend mode="normal" in2="effect1_dropShadow_36451_7" result="effect2_dropShadow_36451_7"/>
<feBlend mode="normal" in="SourceGraphic" in2="effect2_dropShadow_36451_7" result="shape"/>
</filter>
<radialGradient id="paint0_radial_36451_7" cx="0" cy="0" r="1" gradientUnits="userSpaceOnUse" gradientTransform="translate(412.624 412.234) rotate(90) scale(529.252)">
<stop offset="0.578192" stop-opacity="0"/>
<stop offset="0.857234"/>
</radialGradient>
</defs>
</svg>
