<svg width="825" height="825" viewBox="0 0 825 825" fill="none" xmlns="http://www.w3.org/2000/svg">
<g filter="url(#filter0_dd_36451_8)">
<path d="M460.752 41.7591C459.456 43.4057 393.503 46.8818 379.535 46.15C365.279 45.2352 339.79 46.5159 336.19 48.1625C334.174 49.2602 331.006 49.992 328.99 49.992C327.118 49.992 324.382 50.7238 322.942 51.6386C319.198 54.2 301.63 57.6761 289.822 58.4079C283.918 58.5908 277.15 59.6886 274.702 60.6033C272.109 61.5181 265.917 62.067 260.733 61.884C255.549 61.7011 250.077 62.2499 248.493 62.9817C244.749 64.6283 225.309 67.0067 212.493 67.3726C207.021 67.5556 184.556 68.2874 162.668 69.0192C134.876 70.117 121.915 69.934 119.899 68.4704C117.739 67.0067 115.147 67.1897 109.963 69.0192C106.219 70.4829 99.1631 73.0442 94.411 74.6908C89.6589 76.3374 82.8908 79.4476 79.2908 81.6431C75.8347 83.8385 72.2347 85.668 71.5147 85.668C69.0666 85.668 68.9226 91.3396 71.0827 94.2669C72.8107 96.4623 72.9547 97.5601 71.2267 101.402C70.2187 103.78 69.7866 107.623 70.2187 109.818C70.6507 112.013 69.9307 116.404 68.7786 119.332C67.4826 122.625 67.1946 125.369 67.9146 126.101C68.6346 126.65 69.2106 129.76 69.2106 132.87C69.2106 136.163 69.7866 141.469 70.5067 144.579C71.6587 149.336 71.3707 151.349 69.0666 155.008C67.1946 158.118 66.9066 159.764 68.0586 160.13C69.2106 160.679 68.7786 163.424 66.6186 169.095C64.8906 173.669 63.1626 179.889 62.8746 183C62.7306 186.11 61.4345 190.501 59.9945 192.879C58.6985 195.258 57.6905 200.746 57.6905 205.137C57.6905 209.345 56.8265 214.834 55.6745 217.029C54.5224 219.224 53.2264 224.713 52.6504 229.287C51.3544 243.009 51.0664 244.289 48.9064 246.485C46.1703 249.229 45.5943 260.938 46.6023 293.321C46.7463 296.797 46.3143 301.554 45.7383 303.566C44.8743 306.677 45.3063 307.774 47.7543 308.506C49.3384 309.055 50.4904 310.336 50.0584 311.067C48.9064 313.263 51.9304 324.057 55.2424 329.912C58.1225 335.217 58.4105 340.523 55.9625 347.658C55.0984 350.403 54.0904 354.793 53.9464 357.355C53.6584 359.733 50.4904 365.405 46.8903 369.796C39.8342 378.76 39.6902 379.309 42.1383 391.018C43.5783 397.788 43.4343 400.166 41.8503 404.008C40.2662 407.85 40.2662 409.131 41.5623 410.228C42.5703 410.96 43.4343 413.156 43.4343 415.168C43.2903 416.998 43.2903 421.389 43.2903 424.865C43.1463 428.158 43.8663 432 44.5863 432.915C45.4503 434.012 46.1703 436.574 46.1703 438.769C46.1703 440.782 47.7543 445.539 49.9144 449.381C53.2264 455.601 53.3704 456.516 51.3544 459.077C48.1863 463.102 48.4744 465.115 52.5064 466.395C55.0984 467.127 56.1065 468.957 56.8265 474.628C57.2585 478.47 58.4105 481.763 59.2745 481.763C60.1385 481.763 60.2825 482.861 59.4185 484.691C58.6985 486.52 58.5545 490.545 59.2745 494.387C60.1385 499.144 59.8505 501.705 58.2665 503.901C57.1145 505.548 55.6745 509.938 55.2424 513.597C54.5224 519.269 54.8104 520.184 57.4025 520.184C60.7145 520.184 66.9066 535.003 68.4906 547.078C69.3546 553.481 68.9226 555.311 66.0426 558.97C61.7225 564.276 58.8425 571.411 59.7065 574.338C60.1385 575.619 59.4185 577.631 58.2665 578.729C57.1145 580.01 56.2505 581.839 56.2505 582.754C56.2505 583.669 54.8104 586.779 53.2264 589.706C51.4984 592.634 50.2024 597.207 50.3464 600.135C50.4904 602.879 50.6344 607.636 50.6344 610.38C50.6344 613.307 51.4984 617.515 52.6504 619.711C56.1065 626.114 56.8265 636.909 54.2344 641.848C51.0664 648.069 51.3544 649.715 56.1065 653.374C59.4185 655.936 59.9945 657.216 58.9865 659.778C57.9785 661.79 58.2665 664.535 59.7065 668.194C60.8585 670.938 61.5785 673.865 61.1465 674.414C60.7145 674.963 61.4345 678.439 62.5865 682.098C63.8826 685.757 64.4586 689.599 64.1706 690.514C63.7386 691.246 63.0186 699.113 62.5865 707.712C62.0105 722.348 62.1545 723.995 65.8986 732.411C68.0586 737.533 70.7947 741.558 71.8027 741.558C72.9547 741.558 73.2427 743.022 72.6667 746.132C71.6587 751.072 74.8267 761.866 77.1308 761.317C77.8508 761.134 80.4428 762.049 82.8908 763.33C86.4909 765.342 88.6509 764.793 100.171 759.671C117.739 751.804 128.827 750.34 218.829 745.217C246.765 743.754 254.253 743.754 255.117 745.583C255.693 746.864 256.701 747.23 257.277 746.681C257.709 745.949 260.013 746.498 262.317 747.962C265.053 749.791 271.101 750.706 281.182 750.706C289.39 750.889 298.894 751.804 302.494 752.718C306.094 753.816 313.582 755.28 319.054 756.195C324.67 756.926 331.438 758.39 334.174 759.488C339.214 761.5 406.031 762.964 444.336 761.866C469.536 761.317 508.993 764.61 516.769 768.087C522.097 770.465 526.273 770.648 546.001 768.818C565.442 767.172 571.202 767.355 581.57 769.55C603.746 774.49 689.139 778.332 727.732 776.137C739.54 775.405 740.692 775.771 743.14 779.613C746.452 784.552 753.508 786.748 755.668 783.272C757.684 780.162 760.42 765.159 760.42 757.658C760.42 754.365 761.572 749.059 763.012 745.766C771.508 726.007 774.1 721.433 778.565 718.689C784.613 715.03 786.197 708.444 783.029 701.308C781.733 698.564 781.013 695.82 781.589 695.088C782.021 694.539 781.301 692.344 779.861 690.331C777.557 687.221 777.269 683.928 777.557 670.938C777.701 662.339 778.421 653.557 778.997 651.362C779.717 648.983 780.005 644.776 779.717 641.848C779.429 638.738 779.285 632.152 779.429 627.212C780.149 594.829 780.005 592.817 773.956 579.461C766.756 563.178 765.028 557.506 764.884 549.091C764.74 545.249 763.876 541.589 762.724 540.858C760.42 539.211 758.548 512.866 760.852 512.866C761.716 512.866 761.716 511.951 760.708 510.487C759.268 508.292 760.708 489.448 762.58 485.423C763.156 484.325 763.876 476.641 764.308 468.408C764.596 460.175 765.316 447.185 765.748 439.684C767.044 415.351 767.188 406.752 766.324 406.752C765.892 406.752 765.46 401.996 765.316 396.141C765.172 386.81 764.164 378.394 762.724 372.906C761.14 367.051 764.596 342.353 768.484 332.473C771.796 323.691 772.66 318.934 772.948 307.042C773.236 298.992 774.244 280.514 775.253 265.878C777.125 238.984 776.405 219.773 773.236 213.37C771.94 210.626 772.228 208.43 774.533 202.576C776.981 196.538 777.125 194.16 775.973 186.293C775.253 181.17 774.389 171.291 774.244 164.338C773.956 157.203 773.38 145.311 772.804 137.627C771.94 125.003 772.228 123.54 774.965 120.246C776.693 118.417 778.853 114.758 779.861 112.196C782.309 105.976 781.445 88.2294 778.565 85.4851C777.269 84.3874 776.261 82.5578 776.261 81.4601C776.261 77.801 766.036 75.2397 742.42 73.0442C740.116 72.8613 735.508 71.7635 732.34 70.6658C724.132 67.5556 711.46 65.909 695.331 65.909C685.107 65.909 681.651 65.3601 682.083 63.7136C682.803 61.3352 674.163 58.4079 656.307 55.2977C645.219 53.4681 634.563 54.3829 631.394 57.4931C630.386 58.5908 629.235 58.2249 628.226 56.9443C627.218 55.2977 621.17 54.3829 609.65 54.017C600.29 53.6511 588.77 52.5534 584.018 51.4556C574.658 49.2602 568.034 49.2602 556.657 51.0897C550.897 52.0045 548.881 51.6386 547.441 49.2602C546.289 47.4307 543.121 46.3329 539.521 46.15C536.353 45.967 532.033 45.4182 530.017 44.6863C528.001 43.9545 523.537 44.3204 519.937 45.4182C514.897 47.0647 512.305 47.0647 508.417 45.2352C501.505 42.125 495.457 42.125 492.577 45.4182C490.417 47.7966 489.841 47.7966 487.105 44.5034C483.648 40.4784 480.192 39.7466 479.328 43.0398C478.896 44.5034 477.744 44.6863 475.872 43.5886C472.992 41.942 461.616 40.4784 460.752 41.7591Z" fill="#F3E8A5"/>
<path d="M460.752 41.7591C459.456 43.4057 393.503 46.8818 379.535 46.15C365.279 45.2352 339.79 46.5159 336.19 48.1625C334.174 49.2602 331.006 49.992 328.99 49.992C327.118 49.992 324.382 50.7238 322.942 51.6386C319.198 54.2 301.63 57.6761 289.822 58.4079C283.918 58.5908 277.15 59.6886 274.702 60.6033C272.109 61.5181 265.917 62.067 260.733 61.884C255.549 61.7011 250.077 62.2499 248.493 62.9817C244.749 64.6283 225.309 67.0067 212.493 67.3726C207.021 67.5556 184.556 68.2874 162.668 69.0192C134.876 70.117 121.915 69.934 119.899 68.4704C117.739 67.0067 115.147 67.1897 109.963 69.0192C106.219 70.4829 99.1631 73.0442 94.411 74.6908C89.6589 76.3374 82.8908 79.4476 79.2908 81.6431C75.8347 83.8385 72.2347 85.668 71.5147 85.668C69.0666 85.668 68.9226 91.3396 71.0827 94.2669C72.8107 96.4623 72.9547 97.5601 71.2267 101.402C70.2187 103.78 69.7866 107.623 70.2187 109.818C70.6507 112.013 69.9307 116.404 68.7786 119.332C67.4826 122.625 67.1946 125.369 67.9146 126.101C68.6346 126.65 69.2106 129.76 69.2106 132.87C69.2106 136.163 69.7866 141.469 70.5067 144.579C71.6587 149.336 71.3707 151.349 69.0666 155.008C67.1946 158.118 66.9066 159.764 68.0586 160.13C69.2106 160.679 68.7786 163.424 66.6186 169.095C64.8906 173.669 63.1626 179.889 62.8746 183C62.7306 186.11 61.4345 190.501 59.9945 192.879C58.6985 195.258 57.6905 200.746 57.6905 205.137C57.6905 209.345 56.8265 214.834 55.6745 217.029C54.5224 219.224 53.2264 224.713 52.6504 229.287C51.3544 243.009 51.0664 244.289 48.9064 246.485C46.1703 249.229 45.5943 260.938 46.6023 293.321C46.7463 296.797 46.3143 301.554 45.7383 303.566C44.8743 306.677 45.3063 307.774 47.7543 308.506C49.3384 309.055 50.4904 310.336 50.0584 311.067C48.9064 313.263 51.9304 324.057 55.2424 329.912C58.1225 335.217 58.4105 340.523 55.9625 347.658C55.0984 350.403 54.0904 354.793 53.9464 357.355C53.6584 359.733 50.4904 365.405 46.8903 369.796C39.8342 378.76 39.6902 379.309 42.1383 391.018C43.5783 397.788 43.4343 400.166 41.8503 404.008C40.2662 407.85 40.2662 409.131 41.5623 410.228C42.5703 410.96 43.4343 413.156 43.4343 415.168C43.2903 416.998 43.2903 421.389 43.2903 424.865C43.1463 428.158 43.8663 432 44.5863 432.915C45.4503 434.012 46.1703 436.574 46.1703 438.769C46.1703 440.782 47.7543 445.539 49.9144 449.381C53.2264 455.601 53.3704 456.516 51.3544 459.077C48.1863 463.102 48.4744 465.115 52.5064 466.395C55.0984 467.127 56.1065 468.957 56.8265 474.628C57.2585 478.47 58.4105 481.763 59.2745 481.763C60.1385 481.763 60.2825 482.861 59.4185 484.691C58.6985 486.52 58.5545 490.545 59.2745 494.387C60.1385 499.144 59.8505 501.705 58.2665 503.901C57.1145 505.548 55.6745 509.938 55.2424 513.597C54.5224 519.269 54.8104 520.184 57.4025 520.184C60.7145 520.184 66.9066 535.003 68.4906 547.078C69.3546 553.481 68.9226 555.311 66.0426 558.97C61.7225 564.276 58.8425 571.411 59.7065 574.338C60.1385 575.619 59.4185 577.631 58.2665 578.729C57.1145 580.01 56.2505 581.839 56.2505 582.754C56.2505 583.669 54.8104 586.779 53.2264 589.706C51.4984 592.634 50.2024 597.207 50.3464 600.135C50.4904 602.879 50.6344 607.636 50.6344 610.38C50.6344 613.307 51.4984 617.515 52.6504 619.711C56.1065 626.114 56.8265 636.909 54.2344 641.848C51.0664 648.069 51.3544 649.715 56.1065 653.374C59.4185 655.936 59.9945 657.216 58.9865 659.778C57.9785 661.79 58.2665 664.535 59.7065 668.194C60.8585 670.938 61.5785 673.865 61.1465 674.414C60.7145 674.963 61.4345 678.439 62.5865 682.098C63.8826 685.757 64.4586 689.599 64.1706 690.514C63.7386 691.246 63.0186 699.113 62.5865 707.712C62.0105 722.348 62.1545 723.995 65.8986 732.411C68.0586 737.533 70.7947 741.558 71.8027 741.558C72.9547 741.558 73.2427 743.022 72.6667 746.132C71.6587 751.072 74.8267 761.866 77.1308 761.317C77.8508 761.134 80.4428 762.049 82.8908 763.33C86.4909 765.342 88.6509 764.793 100.171 759.671C117.739 751.804 128.827 750.34 218.829 745.217C246.765 743.754 254.253 743.754 255.117 745.583C255.693 746.864 256.701 747.23 257.277 746.681C257.709 745.949 260.013 746.498 262.317 747.962C265.053 749.791 271.101 750.706 281.182 750.706C289.39 750.889 298.894 751.804 302.494 752.718C306.094 753.816 313.582 755.28 319.054 756.195C324.67 756.926 331.438 758.39 334.174 759.488C339.214 761.5 406.031 762.964 444.336 761.866C469.536 761.317 508.993 764.61 516.769 768.087C522.097 770.465 526.273 770.648 546.001 768.818C565.442 767.172 571.202 767.355 581.57 769.55C603.746 774.49 689.139 778.332 727.732 776.137C739.54 775.405 740.692 775.771 743.14 779.613C746.452 784.552 753.508 786.748 755.668 783.272C757.684 780.162 760.42 765.159 760.42 757.658C760.42 754.365 761.572 749.059 763.012 745.766C771.508 726.007 774.1 721.433 778.565 718.689C784.613 715.03 786.197 708.444 783.029 701.308C781.733 698.564 781.013 695.82 781.589 695.088C782.021 694.539 781.301 692.344 779.861 690.331C777.557 687.221 777.269 683.928 777.557 670.938C777.701 662.339 778.421 653.557 778.997 651.362C779.717 648.983 780.005 644.776 779.717 641.848C779.429 638.738 779.285 632.152 779.429 627.212C780.149 594.829 780.005 592.817 773.956 579.461C766.756 563.178 765.028 557.506 764.884 549.091C764.74 545.249 763.876 541.589 762.724 540.858C760.42 539.211 758.548 512.866 760.852 512.866C761.716 512.866 761.716 511.951 760.708 510.487C759.268 508.292 760.708 489.448 762.58 485.423C763.156 484.325 763.876 476.641 764.308 468.408C764.596 460.175 765.316 447.185 765.748 439.684C767.044 415.351 767.188 406.752 766.324 406.752C765.892 406.752 765.46 401.996 765.316 396.141C765.172 386.81 764.164 378.394 762.724 372.906C761.14 367.051 764.596 342.353 768.484 332.473C771.796 323.691 772.66 318.934 772.948 307.042C773.236 298.992 774.244 280.514 775.253 265.878C777.125 238.984 776.405 219.773 773.236 213.37C771.94 210.626 772.228 208.43 774.533 202.576C776.981 196.538 777.125 194.16 775.973 186.293C775.253 181.17 774.389 171.291 774.244 164.338C773.956 157.203 773.38 145.311 772.804 137.627C771.94 125.003 772.228 123.54 774.965 120.246C776.693 118.417 778.853 114.758 779.861 112.196C782.309 105.976 781.445 88.2294 778.565 85.4851C777.269 84.3874 776.261 82.5578 776.261 81.4601C776.261 77.801 766.036 75.2397 742.42 73.0442C740.116 72.8613 735.508 71.7635 732.34 70.6658C724.132 67.5556 711.46 65.909 695.331 65.909C685.107 65.909 681.651 65.3601 682.083 63.7136C682.803 61.3352 674.163 58.4079 656.307 55.2977C645.219 53.4681 634.563 54.3829 631.394 57.4931C630.386 58.5908 629.235 58.2249 628.226 56.9443C627.218 55.2977 621.17 54.3829 609.65 54.017C600.29 53.6511 588.77 52.5534 584.018 51.4556C574.658 49.2602 568.034 49.2602 556.657 51.0897C550.897 52.0045 548.881 51.6386 547.441 49.2602C546.289 47.4307 543.121 46.3329 539.521 46.15C536.353 45.967 532.033 45.4182 530.017 44.6863C528.001 43.9545 523.537 44.3204 519.937 45.4182C514.897 47.0647 512.305 47.0647 508.417 45.2352C501.505 42.125 495.457 42.125 492.577 45.4182C490.417 47.7966 489.841 47.7966 487.105 44.5034C483.648 40.4784 480.192 39.7466 479.328 43.0398C478.896 44.5034 477.744 44.6863 475.872 43.5886C472.992 41.942 461.616 40.4784 460.752 41.7591Z" fill="url(#paint0_radial_36451_8)" fill-opacity="0.2"/>
</g>
<defs>
<filter id="filter0_dd_36451_8" x="0.623535" y="0.96582" width="824" height="824" filterUnits="userSpaceOnUse" color-interpolation-filters="sRGB">
<feFlood flood-opacity="0" result="BackgroundImageFix"/>
<feColorMatrix in="SourceAlpha" type="matrix" values="0 0 0 0 0 0 0 0 0 0 0 0 0 0 0 0 0 0 127 0" result="hardAlpha"/>
<feOffset dx="20" dy="20"/>
<feGaussianBlur stdDeviation="10"/>
<feComposite in2="hardAlpha" operator="out"/>
<feColorMatrix type="matrix" values="0 0 0 0 0.952941 0 0 0 0 0.909804 0 0 0 0 0.647059 0 0 0 1 0"/>
<feBlend mode="normal" in2="BackgroundImageFix" result="effect1_dropShadow_36451_8"/>
<feColorMatrix in="SourceAlpha" type="matrix" values="0 0 0 0 0 0 0 0 0 0 0 0 0 0 0 0 0 0 127 0" result="hardAlpha"/>
<feOffset dx="-20" dy="-20"/>
<feGaussianBlur stdDeviation="10"/>
<feComposite in2="hardAlpha" operator="out"/>
<feColorMatrix type="matrix" values="0 0 0 0 0.952941 0 0 0 0 0.909804 0 0 0 0 0.647059 0 0 0 1 0"/>
<feBlend mode="normal" in2="effect1_dropShadow_36451_8" result="effect2_dropShadow_36451_8"/>
<feBlend mode="normal" in="SourceGraphic" in2="effect2_dropShadow_36451_8" result="shape"/>
</filter>
<radialGradient id="paint0_radial_36451_8" cx="0" cy="0" r="1" gradientUnits="userSpaceOnUse" gradientTransform="translate(412.624 412.966) rotate(90) scale(467.205)">
<stop offset="0.669197" stop-opacity="0"/>
<stop offset="1"/>
</radialGradient>
</defs>
</svg>
