<svg width="825" height="825" viewBox="0 0 825 825" fill="none" xmlns="http://www.w3.org/2000/svg">
<g filter="url(#filter0_dd_36451_3)">
<path d="M748.443 40.8259C747.51 41.8307 745.526 42.5005 744.243 42.5005C740.042 42.5005 729.307 49.5343 726.624 53.8885C724.407 57.7402 723.123 58.2427 715.539 58.4101C707.721 58.7451 697.22 62.4294 694.303 66.2812C692.67 68.2908 685.085 67.9559 686.019 65.9462C686.486 64.774 685.785 64.774 684.035 65.7788C681.352 67.4535 673.651 69.1282 665.016 70.3004C662.449 70.4679 657.315 71.1378 653.465 71.6402C647.631 72.3101 645.764 71.8077 640.98 68.1233L635.379 63.7691L632.462 67.7884C630.712 70.133 629.429 73.6498 629.429 76.3293C629.429 84.7028 627.445 89.057 623.011 90.8992C620.677 91.7365 617.994 93.9136 616.827 95.7558C615.31 98.1003 612.043 99.44 603.759 100.947C597.575 102.12 591.857 103.962 590.807 105.301C589.874 106.641 588.59 107.814 588.123 107.814C587.657 107.814 585.09 109.321 582.406 110.995C579.606 112.838 575.872 114.847 574.005 115.517C572.021 116.187 569.571 117.862 568.404 119.369C566.421 121.881 566.071 121.713 564.437 118.699C563.504 116.857 562.454 116.187 562.22 117.024C561.987 118.029 558.837 118.699 555.219 118.364C550.085 118.197 547.985 117.192 545.535 114.01C543.435 111.163 540.518 109.488 536.084 108.818C532.583 108.148 529.433 107.814 529.083 107.981C528.733 108.148 527.333 107.479 525.932 106.474C524.416 105.301 523.132 105.134 522.665 105.971C521.032 109.991 507.38 105.302 499.446 98.1003C496.179 95.0859 492.095 92.7413 490.111 92.7413C488.244 92.7413 484.861 91.904 482.76 90.7317C479.377 89.057 478.56 89.057 477.627 91.0666C476.693 93.2437 476.46 93.2437 475.526 91.2341C474.593 89.2245 474.126 89.2245 472.493 91.569C471.442 93.2437 468.759 94.416 466.659 94.416C463.508 94.416 462.691 93.7461 462.341 90.5642C462.108 88.3871 460.591 85.8751 458.257 84.3679C456.041 82.8606 454.407 80.5161 454.407 78.8414C454.407 75.8269 454.29 75.8269 451.257 79.0088C449.39 80.6835 446.123 83.363 443.906 85.0377C441.689 86.545 439.005 88.3871 438.072 89.2245C435.738 91.0666 424.653 96.0907 422.903 96.0907C422.203 96.0907 420.803 97.0955 419.986 98.4352C417.652 101.617 410.885 100.445 403.767 95.4208C400.384 93.0763 397.233 91.0666 396.883 91.0666C396.417 91.0666 392.916 87.5498 389.066 83.363C381.831 75.157 379.264 74.6546 377.514 81.3534C375.997 87.0474 360.362 99.775 340.06 112C335.859 114.512 330.258 118.364 327.575 120.541L322.674 124.56L315.673 121.211C311.823 119.369 307.389 117.862 305.755 117.862C304.122 117.862 302.605 117.192 302.255 116.354C301.905 115.517 300.505 115.182 299.221 115.685C297.938 116.187 295.604 115.35 293.971 113.842C291.404 111.33 282.069 108.818 268.534 106.809C263.4 106.139 262.7 106.474 259.2 111.665C256.166 116.354 254.532 117.527 250.449 117.694C247.648 117.694 243.798 116.689 241.931 115.182C237.38 112 227.346 109.488 213.577 108.651C197.125 107.479 195.025 106.306 186.624 93.5787C181.023 85.2052 178.573 82.5257 176.473 82.8606C173.672 83.363 167.138 79.1763 163.638 74.6546C161.888 72.645 160.488 72.4775 154.653 74.1522C149.87 75.492 146.252 75.6595 142.635 74.4872C139.485 73.4824 135.985 73.3149 133.768 74.1522C131.784 74.9896 129.917 75.3245 129.567 74.6546C129.217 74.1522 128.867 74.4872 128.867 75.492C128.867 77.3341 110.198 77.1667 108.098 75.3245C107.398 74.6546 104.014 73.8173 100.63 73.3149C97.2464 72.9799 93.396 72.4775 91.9958 72.1426C90.3623 71.9751 87.5619 75.157 83.0113 82.6932C74.0269 97.263 70.5265 108.148 70.5265 120.876C70.5265 126.57 69.3597 135.948 67.9595 142.312C66.5593 148.676 65.3925 158.557 65.2758 164.251C65.2758 169.945 64.8091 175.136 64.4591 175.806C63.9923 176.308 63.9923 177.816 64.3424 179.155C64.6924 180.495 64.109 182.84 63.1756 184.514C59.0917 191.046 55.4746 204.443 54.7745 215.831C53.4911 238.44 53.141 240.952 51.3908 247.148C50.3407 250.832 49.5239 258.201 49.5239 265.067C49.5239 271.431 48.8238 278.465 48.007 280.809C46.0235 286.168 45.3234 332.892 47.1903 339.591C47.7737 342.103 48.007 344.95 47.657 345.955C47.1903 346.96 46.7236 351.984 46.4902 357.175C45.6734 378.276 44.9733 387.32 43.9232 390.334C43.3398 392.009 42.7564 398.54 42.6397 404.904C42.523 411.268 41.9396 417.632 41.4729 419.139C40.8895 420.646 40.6561 427.68 40.7728 434.713C41.0062 444.594 41.5896 448.613 43.4565 451.963C46.6069 457.489 47.4236 467.872 47.7737 502.204C48.007 532.85 48.8238 537.875 54.3078 548.927C56.1747 552.612 57.6916 556.464 57.6916 557.468C57.6916 558.306 58.7417 561.99 60.0252 565.674C61.8921 570.531 62.2421 573.713 61.7754 579.239C61.3087 583.091 61.6587 591.967 62.4755 598.666C63.9923 610.724 64.5757 626.801 64.5757 651.251C64.5757 657.615 64.5757 667.663 64.5757 673.357C64.4591 683.238 66.9094 692.281 69.4764 692.281C70.4098 692.281 76.2438 707.186 76.4772 710.2C76.7106 712.043 77.5273 715.559 79.1609 722.258C81.1445 729.794 87.912 733.479 92.9292 729.794C94.7961 728.454 99.5801 726.612 103.547 725.942C107.514 725.105 114.165 723.263 118.366 721.923C128.75 718.239 148.236 715.559 169.122 715.224C188.608 714.889 189.891 715.057 198.876 721.588C204.593 725.775 206.81 726.277 218.711 726.78C227.696 726.947 234.113 726.277 238.314 724.77C244.731 722.258 252.432 723.263 263.984 728.622C266.667 729.794 271.568 730.799 274.718 730.799C277.985 730.799 281.486 731.469 282.653 732.306C297.121 742.354 307.389 747.881 310.423 747.044C311.939 746.709 313.806 747.379 314.506 748.551C315.207 749.891 316.607 750.895 317.423 750.895C318.357 750.895 319.99 751.565 321.157 752.403C322.207 753.24 326.058 755.919 329.558 758.599C338.076 764.628 345.544 770.824 351.494 776.351C356.862 781.542 363.279 783.887 372.614 784.222C378.331 784.389 380.898 783.049 398.867 770.489C417.652 757.259 419.403 756.422 428.154 755.417C435.271 754.747 439.238 753.407 445.073 749.388C449.273 746.541 453.94 744.197 455.574 744.197C457.207 744.197 461.875 741.852 465.842 739.005C472.493 734.483 473.893 733.981 479.26 735.153C482.644 735.991 489.528 736.66 494.662 736.66C505.397 736.995 517.531 739.507 522.665 742.689C525.582 744.364 537.717 745.536 561.754 746.039C572.255 746.374 610.643 742.689 614.26 741.015C616.477 740.01 620.094 739.173 622.311 739.173C624.411 739.173 628.028 737.665 630.129 735.656C634.796 731.636 641.097 728.789 641.097 730.799C641.097 731.636 643.08 733.144 645.53 734.316C647.864 735.321 650.431 736.66 651.015 737.33C651.715 737.833 653.115 738.503 654.398 738.67C655.565 739.005 658.249 740.177 660.232 741.517C662.216 742.689 665.716 744.699 667.933 745.871C670.15 746.876 673.301 748.886 674.934 750.058C676.568 751.23 683.802 754.58 691.036 757.427C703.054 762.283 704.804 762.451 713.205 761.111C720.906 759.771 724.524 757.929 738.759 747.713C756.144 735.153 760.111 730.129 760.111 719.914C760.111 717.402 761.045 713.382 762.328 711.038C764.428 706.683 766.762 682.4 766.062 672.687C765.945 670.678 766.412 665.821 767.229 661.802C767.929 657.782 768.512 651.754 768.396 648.237C768.396 644.72 768.746 640.366 769.446 638.858C770.029 637.184 772.129 627.303 773.996 616.753C775.863 606.202 778.313 594.814 779.247 591.465C780.53 587.11 781.114 578.904 781.231 563.832C781.347 552.109 781.931 541.056 782.514 539.549C783.447 536.87 784.264 513.257 784.731 473.734C784.848 465.695 784.148 456.652 783.097 451.125C781.697 444.762 781.114 433.709 780.88 414.617C780.764 399.545 780.297 386.985 779.947 386.65C779.597 386.315 779.48 368.563 779.597 346.96C780.064 289.853 779.83 272.268 778.547 269.254C778.08 268.249 777.38 261.55 776.913 254.182C776.563 246.98 775.396 238.44 774.58 235.425C772.829 229.061 771.546 213.152 771.663 200.089C771.896 189.036 769.796 166.428 767.696 157.217C766.645 152.36 766.412 143.317 766.762 124.56C767.229 102.789 766.995 95.5883 765.012 81.0185C761.511 55.7306 761.161 51.2089 762.445 50.0367C763.845 48.8644 764.078 45.6825 762.795 46.1849C762.212 46.3523 760.228 45.3475 758.244 43.6728C756.261 42.1656 754.277 41.4957 753.927 41.9981C753.46 42.5005 752.527 42.1656 751.594 41.1608C750.66 39.9885 749.493 39.9885 748.443 40.8259Z" fill="#F3E8A5"/>
<path d="M748.443 40.8259C747.51 41.8307 745.526 42.5005 744.243 42.5005C740.042 42.5005 729.307 49.5343 726.624 53.8885C724.407 57.7402 723.123 58.2427 715.539 58.4101C707.721 58.7451 697.22 62.4294 694.303 66.2812C692.67 68.2908 685.085 67.9559 686.019 65.9462C686.486 64.774 685.785 64.774 684.035 65.7788C681.352 67.4535 673.651 69.1282 665.016 70.3004C662.449 70.4679 657.315 71.1378 653.465 71.6402C647.631 72.3101 645.764 71.8077 640.98 68.1233L635.379 63.7691L632.462 67.7884C630.712 70.133 629.429 73.6498 629.429 76.3293C629.429 84.7028 627.445 89.057 623.011 90.8992C620.677 91.7365 617.994 93.9136 616.827 95.7558C615.31 98.1003 612.043 99.44 603.759 100.947C597.575 102.12 591.857 103.962 590.807 105.301C589.874 106.641 588.59 107.814 588.123 107.814C587.657 107.814 585.09 109.321 582.406 110.995C579.606 112.838 575.872 114.847 574.005 115.517C572.021 116.187 569.571 117.862 568.404 119.369C566.421 121.881 566.071 121.713 564.437 118.699C563.504 116.857 562.454 116.187 562.22 117.024C561.987 118.029 558.837 118.699 555.219 118.364C550.085 118.197 547.985 117.192 545.535 114.01C543.435 111.163 540.518 109.488 536.084 108.818C532.583 108.148 529.433 107.814 529.083 107.981C528.733 108.148 527.333 107.479 525.932 106.474C524.416 105.301 523.132 105.134 522.665 105.971C521.032 109.991 507.38 105.302 499.446 98.1003C496.179 95.0859 492.095 92.7413 490.111 92.7413C488.244 92.7413 484.861 91.904 482.76 90.7317C479.377 89.057 478.56 89.057 477.627 91.0666C476.693 93.2437 476.46 93.2437 475.526 91.2341C474.593 89.2245 474.126 89.2245 472.493 91.569C471.442 93.2437 468.759 94.416 466.659 94.416C463.508 94.416 462.691 93.7461 462.341 90.5642C462.108 88.3871 460.591 85.8751 458.257 84.3679C456.041 82.8606 454.407 80.5161 454.407 78.8414C454.407 75.8269 454.29 75.8269 451.257 79.0088C449.39 80.6835 446.123 83.363 443.906 85.0377C441.689 86.545 439.005 88.3871 438.072 89.2245C435.738 91.0666 424.653 96.0907 422.903 96.0907C422.203 96.0907 420.803 97.0955 419.986 98.4352C417.652 101.617 410.885 100.445 403.767 95.4208C400.384 93.0763 397.233 91.0666 396.883 91.0666C396.417 91.0666 392.916 87.5498 389.066 83.363C381.831 75.157 379.264 74.6546 377.514 81.3534C375.997 87.0474 360.362 99.775 340.06 112C335.859 114.512 330.258 118.364 327.575 120.541L322.674 124.56L315.673 121.211C311.823 119.369 307.389 117.862 305.755 117.862C304.122 117.862 302.605 117.192 302.255 116.354C301.905 115.517 300.505 115.182 299.221 115.685C297.938 116.187 295.604 115.35 293.971 113.842C291.404 111.33 282.069 108.818 268.534 106.809C263.4 106.139 262.7 106.474 259.2 111.665C256.166 116.354 254.532 117.527 250.449 117.694C247.648 117.694 243.798 116.689 241.931 115.182C237.38 112 227.346 109.488 213.577 108.651C197.125 107.479 195.025 106.306 186.624 93.5787C181.023 85.2052 178.573 82.5257 176.473 82.8606C173.672 83.363 167.138 79.1763 163.638 74.6546C161.888 72.645 160.488 72.4775 154.653 74.1522C149.87 75.492 146.252 75.6595 142.635 74.4872C139.485 73.4824 135.985 73.3149 133.768 74.1522C131.784 74.9896 129.917 75.3245 129.567 74.6546C129.217 74.1522 128.867 74.4872 128.867 75.492C128.867 77.3341 110.198 77.1667 108.098 75.3245C107.398 74.6546 104.014 73.8173 100.63 73.3149C97.2464 72.9799 93.396 72.4775 91.9958 72.1426C90.3623 71.9751 87.5619 75.157 83.0113 82.6932C74.0269 97.263 70.5265 108.148 70.5265 120.876C70.5265 126.57 69.3597 135.948 67.9595 142.312C66.5593 148.676 65.3925 158.557 65.2758 164.251C65.2758 169.945 64.8091 175.136 64.4591 175.806C63.9923 176.308 63.9923 177.816 64.3424 179.155C64.6924 180.495 64.109 182.84 63.1756 184.514C59.0917 191.046 55.4746 204.443 54.7745 215.831C53.4911 238.44 53.141 240.952 51.3908 247.148C50.3407 250.832 49.5239 258.201 49.5239 265.067C49.5239 271.431 48.8238 278.465 48.007 280.809C46.0235 286.168 45.3234 332.892 47.1903 339.591C47.7737 342.103 48.007 344.95 47.657 345.955C47.1903 346.96 46.7236 351.984 46.4902 357.175C45.6734 378.276 44.9733 387.32 43.9232 390.334C43.3398 392.009 42.7564 398.54 42.6397 404.904C42.523 411.268 41.9396 417.632 41.4729 419.139C40.8895 420.646 40.6561 427.68 40.7728 434.713C41.0062 444.594 41.5896 448.613 43.4565 451.963C46.6069 457.489 47.4236 467.872 47.7737 502.204C48.007 532.85 48.8238 537.875 54.3078 548.927C56.1747 552.612 57.6916 556.464 57.6916 557.468C57.6916 558.306 58.7417 561.99 60.0252 565.674C61.8921 570.531 62.2421 573.713 61.7754 579.239C61.3087 583.091 61.6587 591.967 62.4755 598.666C63.9923 610.724 64.5757 626.801 64.5757 651.251C64.5757 657.615 64.5757 667.663 64.5757 673.357C64.4591 683.238 66.9094 692.281 69.4764 692.281C70.4098 692.281 76.2438 707.186 76.4772 710.2C76.7106 712.043 77.5273 715.559 79.1609 722.258C81.1445 729.794 87.912 733.479 92.9292 729.794C94.7961 728.454 99.5801 726.612 103.547 725.942C107.514 725.105 114.165 723.263 118.366 721.923C128.75 718.239 148.236 715.559 169.122 715.224C188.608 714.889 189.891 715.057 198.876 721.588C204.593 725.775 206.81 726.277 218.711 726.78C227.696 726.947 234.113 726.277 238.314 724.77C244.731 722.258 252.432 723.263 263.984 728.622C266.667 729.794 271.568 730.799 274.718 730.799C277.985 730.799 281.486 731.469 282.653 732.306C297.121 742.354 307.389 747.881 310.423 747.044C311.939 746.709 313.806 747.379 314.506 748.551C315.207 749.891 316.607 750.895 317.423 750.895C318.357 750.895 319.99 751.565 321.157 752.403C322.207 753.24 326.058 755.919 329.558 758.599C338.076 764.628 345.544 770.824 351.494 776.351C356.862 781.542 363.279 783.887 372.614 784.222C378.331 784.389 380.898 783.049 398.867 770.489C417.652 757.259 419.403 756.422 428.154 755.417C435.271 754.747 439.238 753.407 445.073 749.388C449.273 746.541 453.94 744.197 455.574 744.197C457.207 744.197 461.875 741.852 465.842 739.005C472.493 734.483 473.893 733.981 479.26 735.153C482.644 735.991 489.528 736.66 494.662 736.66C505.397 736.995 517.531 739.507 522.665 742.689C525.582 744.364 537.717 745.536 561.754 746.039C572.255 746.374 610.643 742.689 614.26 741.015C616.477 740.01 620.094 739.173 622.311 739.173C624.411 739.173 628.028 737.665 630.129 735.656C634.796 731.636 641.097 728.789 641.097 730.799C641.097 731.636 643.08 733.144 645.53 734.316C647.864 735.321 650.431 736.66 651.015 737.33C651.715 737.833 653.115 738.503 654.398 738.67C655.565 739.005 658.249 740.177 660.232 741.517C662.216 742.689 665.716 744.699 667.933 745.871C670.15 746.876 673.301 748.886 674.934 750.058C676.568 751.23 683.802 754.58 691.036 757.427C703.054 762.283 704.804 762.451 713.205 761.111C720.906 759.771 724.524 757.929 738.759 747.713C756.144 735.153 760.111 730.129 760.111 719.914C760.111 717.402 761.045 713.382 762.328 711.038C764.428 706.683 766.762 682.4 766.062 672.687C765.945 670.678 766.412 665.821 767.229 661.802C767.929 657.782 768.512 651.754 768.396 648.237C768.396 644.72 768.746 640.366 769.446 638.858C770.029 637.184 772.129 627.303 773.996 616.753C775.863 606.202 778.313 594.814 779.247 591.465C780.53 587.11 781.114 578.904 781.231 563.832C781.347 552.109 781.931 541.056 782.514 539.549C783.447 536.87 784.264 513.257 784.731 473.734C784.848 465.695 784.148 456.652 783.097 451.125C781.697 444.762 781.114 433.709 780.88 414.617C780.764 399.545 780.297 386.985 779.947 386.65C779.597 386.315 779.48 368.563 779.597 346.96C780.064 289.853 779.83 272.268 778.547 269.254C778.08 268.249 777.38 261.55 776.913 254.182C776.563 246.98 775.396 238.44 774.58 235.425C772.829 229.061 771.546 213.152 771.663 200.089C771.896 189.036 769.796 166.428 767.696 157.217C766.645 152.36 766.412 143.317 766.762 124.56C767.229 102.789 766.995 95.5883 765.012 81.0185C761.511 55.7306 761.161 51.2089 762.445 50.0367C763.845 48.8644 764.078 45.6825 762.795 46.1849C762.212 46.3523 760.228 45.3475 758.244 43.6728C756.261 42.1656 754.277 41.4957 753.927 41.9981C753.46 42.5005 752.527 42.1656 751.594 41.1608C750.66 39.9885 749.493 39.9885 748.443 40.8259Z" fill="url(#paint0_radial_36451_3)" fill-opacity="0.2"/>
</g>
<defs>
<filter id="filter0_dd_36451_3" x="0.743652" y="0.234375" width="824" height="824" filterUnits="userSpaceOnUse" color-interpolation-filters="sRGB">
<feFlood flood-opacity="0" result="BackgroundImageFix"/>
<feColorMatrix in="SourceAlpha" type="matrix" values="0 0 0 0 0 0 0 0 0 0 0 0 0 0 0 0 0 0 127 0" result="hardAlpha"/>
<feOffset dx="20" dy="20"/>
<feGaussianBlur stdDeviation="10"/>
<feComposite in2="hardAlpha" operator="out"/>
<feColorMatrix type="matrix" values="0 0 0 0 0.952941 0 0 0 0 0.909804 0 0 0 0 0.647059 0 0 0 1 0"/>
<feBlend mode="normal" in2="BackgroundImageFix" result="effect1_dropShadow_36451_3"/>
<feColorMatrix in="SourceAlpha" type="matrix" values="0 0 0 0 0 0 0 0 0 0 0 0 0 0 0 0 0 0 127 0" result="hardAlpha"/>
<feOffset dx="-20" dy="-20"/>
<feGaussianBlur stdDeviation="10"/>
<feComposite in2="hardAlpha" operator="out"/>
<feColorMatrix type="matrix" values="0 0 0 0 0.952941 0 0 0 0 0.909804 0 0 0 0 0.647059 0 0 0 1 0"/>
<feBlend mode="normal" in2="effect1_dropShadow_36451_3" result="effect2_dropShadow_36451_3"/>
<feBlend mode="normal" in="SourceGraphic" in2="effect2_dropShadow_36451_3" result="shape"/>
</filter>
<radialGradient id="paint0_radial_36451_3" cx="0" cy="0" r="1" gradientUnits="userSpaceOnUse" gradientTransform="translate(412.744 412.234) rotate(90) scale(477.508)">
<stop offset="0.612076" stop-opacity="0"/>
<stop offset="0.892585"/>
</radialGradient>
</defs>
</svg>
