<svg width="826" height="825" viewBox="0 0 826 825" fill="none" xmlns="http://www.w3.org/2000/svg">
<g filter="url(#filter0_dd_36446_2)">
<path d="M257.44 49.0308C259.707 46.907 265.974 44.0753 271.44 42.6594C276.907 41.2435 283.574 40.5356 286.107 41.2435C303.04 45.4911 315.174 46.907 350.107 47.9689C389.707 49.3848 401.174 51.1547 407.574 56.8182C409.574 58.234 414.374 59.2959 418.24 58.588C422.24 57.8801 437.174 56.4641 451.44 55.0483C465.707 53.9863 481.307 51.5086 485.974 49.7388C492.907 47.261 494.774 47.6149 496.507 51.8626C497.84 55.7562 500.24 56.8181 503.974 56.1102C507.04 55.0483 511.707 56.4642 514.507 58.942C517.174 61.4197 524.107 64.6054 529.84 66.0213C535.44 67.4371 540.774 69.561 541.44 70.9769C542.24 72.3927 545.44 75.9324 548.774 78.7642C556.507 85.1356 580.907 79.826 586.374 70.2689C588.774 66.0213 590.24 65.3134 590.774 67.7911C591.307 69.9149 592.24 70.2689 593.174 67.7911C595.307 63.5435 604.774 63.5435 604.774 68.1451C604.774 69.9149 605.84 70.6229 607.174 69.561C608.507 68.1451 613.174 70.6229 617.574 74.8705C621.84 78.7642 628.107 83.0118 631.307 83.7197C634.507 84.7816 638.107 86.9055 639.44 88.6753C645.04 96.4626 656.107 100.71 674.774 101.418C710.107 102.834 726.774 104.604 728.507 107.436C729.44 109.206 730.107 108.497 730.107 105.666C730.107 98.9404 746.24 100.356 755.44 107.79C763.04 113.807 768.107 120.532 765.174 120.532C764.24 120.532 762.907 123.364 762.24 126.904C761.174 131.859 761.707 136.461 764.107 146.372C765.974 153.452 767.44 162.301 767.44 165.841C767.44 173.274 770.774 177.167 777.04 177.167C779.84 177.167 780.907 179.291 781.307 184.955C782.24 196.99 783.574 216.812 783.84 223.891C783.974 227.431 784.374 230.263 784.774 230.263C786.24 230.263 784.507 298.933 782.907 305.304C781.707 309.552 781.307 317.693 781.84 327.958C782.374 341.763 781.707 348.134 777.574 369.373C770.24 407.955 766.107 439.458 767.04 449.724C767.44 454.679 769.174 462.112 770.907 466.714C772.64 470.962 774.374 478.395 774.64 482.643C776.24 501.757 776.507 524.057 775.44 547.419C774.507 566.533 774.64 576.444 776.24 589.895C778.64 610.779 778.774 656.795 776.507 676.618C774.507 694.316 769.84 704.227 755.707 720.51C739.574 739.27 720.24 744.934 692.107 739.27C671.44 735.376 670.64 735.376 665.307 742.81C658.24 752.367 640.374 761.216 627.84 761.216C622.374 761.216 612.107 764.402 605.04 768.295C597.974 772.189 588.24 775.375 583.44 775.021C554.24 774.313 538.907 776.083 530.107 780.684C522.507 784.578 512.907 785.64 490.107 784.578C463.04 783.516 459.44 782.454 453.574 775.729C447.574 768.649 444.64 768.295 412.24 767.588H412.24C393.173 767.588 369.04 767.588 358.774 767.941C348.374 768.649 337.174 766.88 333.44 764.756C321.974 757.676 262.507 753.075 251.44 758.384C247.44 760.154 241.44 765.818 238.107 770.773C233.04 778.561 230.64 779.976 222.774 779.622C217.707 779.268 210.774 776.437 207.44 773.605C201.707 768.649 187.174 763.34 164.107 757.676C152.64 754.845 148.374 752.013 144.107 744.934C142.507 742.102 138.907 739.27 136.107 738.208C133.174 737.5 126.64 733.253 121.44 729.359C116.374 725.111 109.974 720.156 107.44 718.386C98.507 711.66 85.1737 709.537 71.4403 712.368C61.9736 714.492 57.307 714.138 57.0403 711.66C56.7736 709.891 54.907 708.121 52.907 708.121C47.307 708.121 45.9736 702.457 48.2403 687.945C49.5736 679.449 49.8403 674.14 48.907 671.308C48.107 668.83 47.307 659.981 46.907 651.132C46.2403 634.495 45.707 628.478 44.2403 619.275C43.707 616.089 43.4403 612.195 43.5736 610.425C43.707 608.656 43.0403 601.576 41.8403 594.851C40.7736 587.771 40.107 575.382 40.507 566.533C40.7736 557.684 41.307 538.216 41.8403 522.995C42.3736 507.774 42.2403 493.97 41.707 492.554C41.1736 491.138 41.5736 487.598 42.7736 485.12C45.0403 479.811 45.5736 456.803 43.1736 456.803C42.3736 456.803 42.6403 453.971 43.9736 450.077C45.8403 444.768 46.107 439.812 45.5736 429.547C44.507 412.911 48.3736 389.903 53.307 382.469C56.7736 377.868 59.307 363.355 57.5737 358.753C57.1737 357.692 57.4403 354.86 58.107 352.382C60.107 346.011 60.2403 327.25 58.2403 321.233C57.1736 317.339 56.907 310.614 57.4403 299.995C58.107 289.73 57.707 281.234 56.6403 275.925C55.1736 268.138 54.6403 250.085 54.107 183.185C53.9736 167.256 53.307 158.407 52.2403 157.345C51.1736 156.283 50.107 146.726 49.5736 134.337C49.1736 121.948 47.707 108.852 46.2403 103.188C44.6403 97.1705 43.9736 90.4451 44.3736 84.4277C44.907 76.6403 45.9736 74.1625 49.9736 72.7467C52.6403 71.3308 57.1736 67.4371 60.2403 63.5435C67.707 53.6324 89.307 55.4022 105.84 67.4372C108.64 69.207 117.974 70.6229 126.774 70.6229C135.574 70.6229 145.84 71.6848 149.44 73.4547C157.44 76.6403 202.24 75.2244 213.174 71.3308C217.44 69.9149 221.174 69.561 221.44 70.9769C222.374 74.8705 237.707 65.6673 240.24 60.0038C241.307 57.5261 244.774 55.0483 247.84 54.3404C250.907 53.6324 255.307 51.1546 257.44 49.0308Z" fill="#F3E8A5"/>
<path d="M257.44 49.0308C259.707 46.907 265.974 44.0753 271.44 42.6594C276.907 41.2435 283.574 40.5356 286.107 41.2435C303.04 45.4911 315.174 46.907 350.107 47.9689C389.707 49.3848 401.174 51.1547 407.574 56.8182C409.574 58.234 414.374 59.2959 418.24 58.588C422.24 57.8801 437.174 56.4641 451.44 55.0483C465.707 53.9863 481.307 51.5086 485.974 49.7388C492.907 47.261 494.774 47.6149 496.507 51.8626C497.84 55.7562 500.24 56.8181 503.974 56.1102C507.04 55.0483 511.707 56.4642 514.507 58.942C517.174 61.4197 524.107 64.6054 529.84 66.0213C535.44 67.4371 540.774 69.561 541.44 70.9769C542.24 72.3927 545.44 75.9324 548.774 78.7642C556.507 85.1356 580.907 79.826 586.374 70.2689C588.774 66.0213 590.24 65.3134 590.774 67.7911C591.307 69.9149 592.24 70.2689 593.174 67.7911C595.307 63.5435 604.774 63.5435 604.774 68.1451C604.774 69.9149 605.84 70.6229 607.174 69.561C608.507 68.1451 613.174 70.6229 617.574 74.8705C621.84 78.7642 628.107 83.0118 631.307 83.7197C634.507 84.7816 638.107 86.9055 639.44 88.6753C645.04 96.4626 656.107 100.71 674.774 101.418C710.107 102.834 726.774 104.604 728.507 107.436C729.44 109.206 730.107 108.497 730.107 105.666C730.107 98.9404 746.24 100.356 755.44 107.79C763.04 113.807 768.107 120.532 765.174 120.532C764.24 120.532 762.907 123.364 762.24 126.904C761.174 131.859 761.707 136.461 764.107 146.372C765.974 153.452 767.44 162.301 767.44 165.841C767.44 173.274 770.774 177.167 777.04 177.167C779.84 177.167 780.907 179.291 781.307 184.955C782.24 196.99 783.574 216.812 783.84 223.891C783.974 227.431 784.374 230.263 784.774 230.263C786.24 230.263 784.507 298.933 782.907 305.304C781.707 309.552 781.307 317.693 781.84 327.958C782.374 341.763 781.707 348.134 777.574 369.373C770.24 407.955 766.107 439.458 767.04 449.724C767.44 454.679 769.174 462.112 770.907 466.714C772.64 470.962 774.374 478.395 774.64 482.643C776.24 501.757 776.507 524.057 775.44 547.419C774.507 566.533 774.64 576.444 776.24 589.895C778.64 610.779 778.774 656.795 776.507 676.618C774.507 694.316 769.84 704.227 755.707 720.51C739.574 739.27 720.24 744.934 692.107 739.27C671.44 735.376 670.64 735.376 665.307 742.81C658.24 752.367 640.374 761.216 627.84 761.216C622.374 761.216 612.107 764.402 605.04 768.295C597.974 772.189 588.24 775.375 583.44 775.021C554.24 774.313 538.907 776.083 530.107 780.684C522.507 784.578 512.907 785.64 490.107 784.578C463.04 783.516 459.44 782.454 453.574 775.729C447.574 768.649 444.64 768.295 412.24 767.588H412.24C393.173 767.588 369.04 767.588 358.774 767.941C348.374 768.649 337.174 766.88 333.44 764.756C321.974 757.676 262.507 753.075 251.44 758.384C247.44 760.154 241.44 765.818 238.107 770.773C233.04 778.561 230.64 779.976 222.774 779.622C217.707 779.268 210.774 776.437 207.44 773.605C201.707 768.649 187.174 763.34 164.107 757.676C152.64 754.845 148.374 752.013 144.107 744.934C142.507 742.102 138.907 739.27 136.107 738.208C133.174 737.5 126.64 733.253 121.44 729.359C116.374 725.111 109.974 720.156 107.44 718.386C98.507 711.66 85.1737 709.537 71.4403 712.368C61.9736 714.492 57.307 714.138 57.0403 711.66C56.7736 709.891 54.907 708.121 52.907 708.121C47.307 708.121 45.9736 702.457 48.2403 687.945C49.5736 679.449 49.8403 674.14 48.907 671.308C48.107 668.83 47.307 659.981 46.907 651.132C46.2403 634.495 45.707 628.478 44.2403 619.275C43.707 616.089 43.4403 612.195 43.5736 610.425C43.707 608.656 43.0403 601.576 41.8403 594.851C40.7736 587.771 40.107 575.382 40.507 566.533C40.7736 557.684 41.307 538.216 41.8403 522.995C42.3736 507.774 42.2403 493.97 41.707 492.554C41.1736 491.138 41.5736 487.598 42.7736 485.12C45.0403 479.811 45.5736 456.803 43.1736 456.803C42.3736 456.803 42.6403 453.971 43.9736 450.077C45.8403 444.768 46.107 439.812 45.5736 429.547C44.507 412.911 48.3736 389.903 53.307 382.469C56.7736 377.868 59.307 363.355 57.5737 358.753C57.1737 357.692 57.4403 354.86 58.107 352.382C60.107 346.011 60.2403 327.25 58.2403 321.233C57.1736 317.339 56.907 310.614 57.4403 299.995C58.107 289.73 57.707 281.234 56.6403 275.925C55.1736 268.138 54.6403 250.085 54.107 183.185C53.9736 167.256 53.307 158.407 52.2403 157.345C51.1736 156.283 50.107 146.726 49.5736 134.337C49.1736 121.948 47.707 108.852 46.2403 103.188C44.6403 97.1705 43.9736 90.4451 44.3736 84.4277C44.907 76.6403 45.9736 74.1625 49.9736 72.7467C52.6403 71.3308 57.1736 67.4371 60.2403 63.5435C67.707 53.6324 89.307 55.4022 105.84 67.4372C108.64 69.207 117.974 70.6229 126.774 70.6229C135.574 70.6229 145.84 71.6848 149.44 73.4547C157.44 76.6403 202.24 75.2244 213.174 71.3308C217.44 69.9149 221.174 69.561 221.44 70.9769C222.374 74.8705 237.707 65.6673 240.24 60.0038C241.307 57.5261 244.774 55.0483 247.84 54.3404C250.907 53.6324 255.307 51.1546 257.44 49.0308Z" fill="url(#paint0_radial_36446_2)" fill-opacity="0.2"/>
</g>
<defs>
<filter id="filter0_dd_36446_2" x="0.389648" y="0.96582" width="824.938" height="824" filterUnits="userSpaceOnUse" color-interpolation-filters="sRGB">
<feFlood flood-opacity="0" result="BackgroundImageFix"/>
<feColorMatrix in="SourceAlpha" type="matrix" values="0 0 0 0 0 0 0 0 0 0 0 0 0 0 0 0 0 0 127 0" result="hardAlpha"/>
<feOffset dx="20" dy="20"/>
<feGaussianBlur stdDeviation="10"/>
<feComposite in2="hardAlpha" operator="out"/>
<feColorMatrix type="matrix" values="0 0 0 0 0.952941 0 0 0 0 0.909804 0 0 0 0 0.647059 0 0 0 1 0"/>
<feBlend mode="normal" in2="BackgroundImageFix" result="effect1_dropShadow_36446_2"/>
<feColorMatrix in="SourceAlpha" type="matrix" values="0 0 0 0 0 0 0 0 0 0 0 0 0 0 0 0 0 0 127 0" result="hardAlpha"/>
<feOffset dx="-20" dy="-20"/>
<feGaussianBlur stdDeviation="10"/>
<feComposite in2="hardAlpha" operator="out"/>
<feColorMatrix type="matrix" values="0 0 0 0 0.952941 0 0 0 0 0.909804 0 0 0 0 0.647059 0 0 0 1 0"/>
<feBlend mode="normal" in2="effect1_dropShadow_36446_2" result="effect2_dropShadow_36446_2"/>
<feBlend mode="normal" in="SourceGraphic" in2="effect2_dropShadow_36446_2" result="shape"/>
</filter>
<radialGradient id="paint0_radial_36446_2" cx="0" cy="0" r="1" gradientUnits="userSpaceOnUse" gradientTransform="translate(412.859 412.966) rotate(90) scale(477.508 478.11)">
<stop offset="0.66195" stop-opacity="0"/>
<stop offset="0.935267"/>
</radialGradient>
</defs>
</svg>
