<svg width="745" height="745" viewBox="0 0 745 745" fill="none" xmlns="http://www.w3.org/2000/svg">
<path d="M113.729 2.12782C112.521 3.24736 106.029 5.26252 99.3868 6.38205C83.6861 9.51675 82.4783 9.96456 81.2706 11.7558C80.6667 12.6514 77.4964 13.3232 74.326 13.3232C70.5518 13.3232 67.5325 14.8905 65.5699 17.8013C63.9092 20.2643 62.5505 21.8316 62.5505 21.1599C62.5505 20.7121 60.7389 21.1599 58.6253 22.2794C56.3608 23.6229 53.9453 23.8468 52.8885 22.7273C50.1711 19.5926 27.8277 19.3686 27.8277 22.2794C27.8277 23.8468 26.0161 24.2946 22.9967 23.6229C20.2793 22.9512 17.4109 23.399 16.5051 24.2946C15.7502 25.4141 11.976 26.7576 8.20178 27.4293C4.42757 28.101 1.25722 28.7727 1.10626 28.7727C-0.554399 29.4445 1.40819 35.9378 4.42757 40.192C6.54113 43.1028 8.20178 47.5809 8.20178 50.0439C8.20178 52.7308 9.5605 58.1045 11.2212 62.1349C14.0896 69.2999 14.6934 78.4801 12.2779 81.8387C10.3153 84.9733 11.2212 98.6317 14.0896 109.155C15.7502 114.977 17.4109 122.59 18.0147 126.396C18.6186 129.979 20.1283 134.905 21.3361 137.144C22.6948 139.159 23.4496 141.622 22.8457 142.293C21.638 144.309 26.62 164.236 29.0355 166.923C30.3942 168.267 30.998 170.954 30.3942 172.745C29.9413 174.76 30.2432 180.134 30.8471 184.836C31.9039 191.105 31.7529 194.24 30.3942 195.807C29.3374 196.927 28.4316 202.524 28.2806 208.122C28.1296 217.974 27.3748 229.841 25.7141 250.664C25.2612 256.486 26.0161 266.786 27.3748 275.07C29.4884 287.385 29.4884 289.848 27.6767 291.863C23.1477 297.013 21.638 301.715 22.9967 305.969C23.7516 308.208 25.4122 313.134 26.7709 317.165C28.1296 321.195 28.4316 324.554 27.6767 325.001C26.7709 325.449 27.0729 328.36 28.4316 332.166C29.6393 335.749 30.2432 339.779 29.7903 341.347C29.4884 343.138 30.5451 345.377 32.2058 346.72C33.8665 348.064 34.9232 350.527 34.4703 352.318C34.0174 354.109 34.9232 356.796 36.4329 358.364C40.811 363.066 41.8678 366.872 39.7542 370.678C38.8484 372.47 38.3955 374.485 38.8484 375.381C39.4523 376.052 39.1504 378.067 38.3955 379.411C36.131 383.441 35.2252 418.818 37.1878 422.625C38.9994 425.76 39.7542 432.701 40.5091 450.613C40.66 456.435 41.7168 462.48 42.6226 463.824C43.6794 465.391 44.4343 468.302 44.4343 470.541C44.4343 473.9 46.0949 480.617 50.9259 496.29C51.6808 498.753 51.8317 502.112 51.3788 503.455C50.7749 504.799 50.7749 507.262 51.5298 508.605C53.3414 513.083 53.4924 526.294 51.6808 536.817C50.473 543.535 50.473 548.013 51.6808 551.595C52.8885 555.626 52.7375 557.641 51.0769 560.104C49.2653 562.567 49.2653 564.806 50.473 569.508C52.7375 578.464 52.4356 579.807 47.4536 582.27C42.1697 585.181 42.3207 584.286 45.0381 592.346C46.2459 595.705 47.0007 599.287 46.6988 600.183C46.2459 601.079 47.0007 602.87 48.2085 604.437C49.4162 606.005 50.473 608.915 50.473 610.93C50.473 615.185 52.4356 622.126 58.4743 639.814C60.7389 646.532 62.5505 654.145 62.5505 656.831C62.5505 659.742 63.4563 664.892 64.6641 668.475C66.0228 672.057 66.6266 679.222 66.4757 684.82C66.1737 690.194 66.4757 697.359 67.0796 700.941C68.1363 706.091 67.6834 707.658 64.815 710.569C56.2098 718.854 59.984 727.138 77.0435 736.99C85.3468 741.692 87.9132 742.14 113.125 741.692C128.071 741.468 145.432 740.125 151.622 739.005C178.343 733.631 251.865 729.377 305.61 729.825C372.942 730.497 372.036 730.721 382.151 725.571C393.021 720.197 401.626 719.525 403.287 724.003C404.947 728.258 423.064 741.692 424.875 739.901C425.63 739.229 426.385 739.453 426.385 740.573C426.385 746.842 444.501 744.827 466.392 736.318C473.034 733.631 521.495 733.408 554.708 735.87C566.786 736.766 580.977 737.214 586.412 737.214C612.227 736.542 619.474 736.542 648.309 737.438C665.368 737.886 686.504 737.214 695.26 735.87C709.149 733.855 712.169 734.079 719.717 737.662C727.869 741.468 728.473 741.468 731.191 737.886C734.814 732.96 737.682 715.495 736.474 705.195C736.022 700.941 735.418 684.148 735.267 668.251C735.116 640.486 734.965 638.695 731.04 630.186C726.662 620.782 725.756 611.602 728.473 604.213C729.379 601.75 730.134 592.346 730.134 583.39C730.134 568.164 730.587 566.149 735.267 557.417C738.135 552.043 740.4 546.221 740.551 544.206C740.551 542.191 741.004 538.609 741.305 536.146C742.815 526.07 743.419 505.246 742.211 502.783C739.947 498.529 739.192 488.23 740.551 479.273C744.325 454.42 745.533 427.327 743.57 414.564C741.305 400.906 740.551 394.636 739.494 376.052C738.89 367.992 737.984 360.379 737.531 359.259C736.927 357.916 736.324 350.751 736.022 343.138C735.72 331.943 736.474 326.345 739.796 315.597C741.909 308.208 743.419 300.148 742.966 297.685C742.513 295.222 742.664 292.759 743.268 292.311C744.778 290.968 743.57 233.2 741.909 224.915C741.155 221.109 740.098 211.929 739.645 204.316C738.89 193.792 737.682 188.866 734.663 184.164C731.342 178.79 730.889 176.103 731.04 163.341C731.191 155.28 730.587 147.219 729.832 145.428C728.926 143.189 729.53 140.502 731.945 136.472C736.474 129.307 740.249 110.723 739.494 100.647C739.041 96.3926 738.588 88.7798 738.286 83.8538C737.984 79.1518 737.078 74.6736 736.022 74.2258C735.116 73.778 734.361 71.9868 734.361 70.1955C734.361 68.4042 733.304 66.3891 732.096 65.4935C730.738 64.8217 728.775 61.4631 727.567 58.1045C724.095 48.0287 720.925 44.4462 716.849 46.0136C714.735 46.9092 711.716 46.0136 709.753 44.2223C707.941 42.4311 703.261 39.7442 699.336 38.4007C695.562 36.8334 690.429 34.5943 688.014 33.2509C681.069 28.9966 679.408 28.7727 640.76 28.101C620.38 27.8771 600.754 26.5337 596.979 25.1902C588.072 21.8316 542.178 22.0555 540.819 25.1902C540.215 26.7576 539.159 26.7576 537.8 25.4141C534.931 22.0555 529.044 22.0555 529.044 25.1902C529.044 27.2054 526.024 28.101 520.136 28.3249C512.739 28.7727 510.173 27.6532 505.493 23.1751C499.756 17.3535 489.792 14.2188 489.792 18.2491C489.792 19.5926 488.886 20.0404 487.829 19.3686C486.621 18.6969 482.545 19.1447 478.469 20.2643C474.393 21.3838 470.77 21.6077 470.317 20.4882C469.864 19.5926 466.09 18.9208 461.863 19.1447C457.786 19.3686 452.352 18.0252 450.087 16.234C446.162 13.3232 444.35 13.5471 431.971 18.0252C421.101 21.8316 412.647 23.1751 393.172 23.6229C379.434 24.0707 357.09 24.9663 343.352 25.638C329.614 26.3098 306.969 27.2054 292.778 27.6532C278.738 28.101 261.98 28.5488 255.79 28.9966C249.601 29.2205 242.052 28.7727 239.184 28.101C226.351 25.1902 181.212 26.5337 177.438 30.1162C175.626 31.6835 155.094 20.2643 148.15 13.9949C144.074 10.1885 139.394 8.39721 131.543 7.72549C124.297 6.82987 120.07 5.48642 119.013 3.24736C117.05 -0.55906 116.899 -0.55906 113.729 2.12782Z" fill="#444444"/>
</svg>
