<svg width="745" height="745" viewBox="0 0 745 745" fill="none" xmlns="http://www.w3.org/2000/svg">
<path d="M708.027 0.825856C707.094 1.83067 705.11 2.50055 703.827 2.50055C699.626 2.50055 688.891 9.53426 686.208 13.8885C683.991 17.7402 682.707 18.2427 675.123 18.4101C667.305 18.7451 656.804 22.4294 653.887 26.2812C652.254 28.2908 644.669 27.9559 645.603 25.9462C646.07 24.774 645.369 24.774 643.619 25.7788C640.936 27.4535 633.235 29.1282 624.6 30.3004C622.033 30.4679 616.899 31.1378 613.049 31.6402C607.215 32.3101 605.348 31.8077 600.564 28.1233L594.963 23.7691L592.046 27.7884C590.296 30.133 589.013 33.6498 589.013 36.3293C589.013 44.7028 587.029 49.057 582.595 50.8992C580.261 51.7365 577.578 53.9136 576.411 55.7558C574.894 58.1003 571.627 59.44 563.343 60.9473C557.159 62.1196 551.441 63.9617 550.391 65.3015C549.458 66.6412 548.174 67.8135 547.707 67.8135C547.241 67.8135 544.674 69.3207 541.99 70.9954C539.19 72.8376 535.456 74.8472 533.589 75.5171C531.605 76.187 529.155 77.8617 527.988 79.3689C526.005 81.8809 525.655 81.7135 524.021 78.699C523.088 76.8568 522.038 76.187 521.804 77.0243C521.571 78.0291 518.42 78.699 514.803 78.3641C509.669 78.1966 507.569 77.1918 505.119 74.0099C503.019 71.1629 500.102 69.4882 495.668 68.8183C492.167 68.1484 489.017 67.8135 488.667 67.981C488.317 68.1484 486.917 67.4786 485.516 66.4738C484 65.3015 482.716 65.134 482.249 65.9713C480.616 69.9906 466.964 65.3015 459.03 58.1003C455.763 55.0859 451.679 52.7413 449.695 52.7413C447.828 52.7413 444.445 51.904 442.344 50.7317C438.961 49.057 438.144 49.057 437.211 51.0666C436.277 53.2437 436.044 53.2437 435.11 51.2341C434.177 49.2245 433.71 49.2245 432.077 51.569C431.026 53.2437 428.343 54.416 426.242 54.416C423.092 54.416 422.275 53.7461 421.925 50.5642C421.692 48.3871 420.175 45.8751 417.841 44.3679C415.625 42.8606 413.991 40.5161 413.991 38.8414C413.991 35.8269 413.874 35.8269 410.841 39.0088C408.974 40.6835 405.707 43.363 403.49 45.0377C401.273 46.545 398.589 48.3871 397.656 49.2245C395.322 51.0666 384.237 56.0907 382.487 56.0907C381.787 56.0907 380.387 57.0955 379.57 58.4352C377.236 61.6171 370.469 60.4449 363.351 55.4208C359.968 53.0763 356.817 51.0666 356.467 51.0666C356.001 51.0666 352.5 47.5498 348.65 43.363C341.415 35.157 338.848 34.6546 337.098 41.3534C335.581 47.0474 319.946 59.775 299.644 72.0002C295.443 74.5123 289.842 78.3641 287.159 80.5412L282.258 84.5604L275.257 81.211C271.407 79.3689 266.973 77.8617 265.339 77.8617C263.706 77.8617 262.189 77.1918 261.839 76.3544C261.489 75.5171 260.089 75.1822 258.805 75.6846C257.522 76.187 255.188 75.3496 253.555 73.8424C250.988 71.3304 241.653 68.8183 228.118 66.8087C222.984 66.1388 222.284 66.4738 218.784 71.6653C215.75 76.3544 214.116 77.5267 210.033 77.6942C207.232 77.6942 203.382 76.6894 201.515 75.1822C196.964 72.0002 186.93 69.4882 173.161 68.6509C156.709 67.4786 154.609 66.3063 146.208 53.5787C140.607 45.2052 138.157 42.5257 136.057 42.8606C133.256 43.363 126.722 39.1763 123.222 34.6546C121.472 32.645 120.072 32.4775 114.237 34.1522C109.454 35.492 105.836 35.6595 102.219 34.4872C99.0689 33.4824 95.5685 33.3149 93.3516 34.1522C91.368 34.9896 89.5011 35.3245 89.1511 34.6546C88.801 34.1522 88.451 34.4872 88.451 35.492C88.451 37.3341 69.782 37.1667 67.6817 35.3245C66.9817 34.6546 63.5979 33.8173 60.2142 33.3149C56.8304 32.9799 52.9799 32.4775 51.5798 32.1426C49.9462 31.9751 47.1459 35.157 42.5953 42.6932C33.6109 57.263 30.1105 68.1484 30.1105 80.8761C30.1105 86.5701 28.9437 95.9483 27.5435 102.312C26.1433 108.676 24.9765 118.557 24.8598 124.251C24.8598 129.945 24.3931 135.136 24.0431 135.806C23.5763 136.308 23.5763 137.816 23.9264 139.155C24.2764 140.495 23.693 142.84 22.7596 144.514C18.6757 151.046 15.0586 164.443 14.3585 175.831C13.075 198.44 12.725 200.952 10.9748 207.148C9.92465 210.832 9.10788 218.201 9.10788 225.067C9.10788 231.431 8.4078 238.465 7.59103 240.809C5.60745 246.168 4.90737 292.892 6.77426 299.591C7.35767 302.103 7.59103 304.95 7.24099 305.955C6.77426 306.96 6.30754 311.984 6.07418 317.175C5.25741 338.276 4.55732 347.32 3.50719 350.334C2.92379 352.009 2.34038 358.54 2.2237 364.904C2.10702 371.268 1.52362 377.632 1.05689 379.139C0.473488 380.646 0.240126 387.68 0.356807 394.713C0.590169 404.594 1.17357 408.613 3.04047 411.963C6.19086 417.489 7.00762 427.872 7.35767 462.204C7.59103 492.85 8.4078 497.875 13.8918 508.927C15.7587 512.612 17.2756 516.464 17.2756 517.468C17.2756 518.306 18.3257 521.99 19.6092 525.674C21.4761 530.531 21.8261 533.713 21.3594 539.239C20.8927 543.091 21.2427 551.967 22.0595 558.666C23.5763 570.724 24.1597 586.801 24.1597 611.251C24.1597 617.615 24.1597 627.663 24.1597 633.357C24.0431 643.238 26.4934 652.281 29.0603 652.281C29.9938 652.281 35.8278 667.186 36.0612 670.2C36.2946 672.043 37.1113 675.559 38.7449 682.258C40.7284 689.794 47.4959 693.479 52.5132 689.794C54.3801 688.454 59.164 686.612 63.1312 685.942C67.0983 685.105 73.7492 683.263 77.9497 681.923C88.3343 678.239 107.82 675.559 128.706 675.224C148.192 674.889 149.475 675.057 158.46 681.588C164.177 685.775 166.394 686.277 178.295 686.78C187.28 686.947 193.697 686.277 197.898 684.77C204.315 682.258 212.016 683.263 223.568 688.622C226.251 689.794 231.152 690.799 234.302 690.799C237.569 690.799 241.07 691.469 242.237 692.306C256.705 702.354 266.973 707.881 270.007 707.044C271.523 706.709 273.39 707.379 274.09 708.551C274.791 709.891 276.191 710.895 277.007 710.895C277.941 710.895 279.574 711.565 280.741 712.403C281.791 713.24 285.642 715.919 289.142 718.599C297.66 724.628 305.128 730.824 311.078 736.351C316.446 741.542 322.863 743.887 332.198 744.222C337.915 744.389 340.482 743.049 358.451 730.489C377.236 717.259 378.987 716.422 387.738 715.417C394.855 714.747 398.822 713.407 404.657 709.388C408.857 706.541 413.524 704.197 415.158 704.197C416.791 704.197 421.459 701.852 425.426 699.005C432.077 694.483 433.477 693.981 438.844 695.153C442.228 695.991 449.112 696.66 454.246 696.66C464.981 696.995 477.115 699.507 482.249 702.689C485.166 704.364 497.301 705.536 521.338 706.039C531.839 706.374 570.227 702.689 573.844 701.015C576.061 700.01 579.678 699.173 581.895 699.173C583.995 699.173 587.612 697.665 589.713 695.656C594.38 691.636 600.681 688.789 600.681 690.799C600.681 691.636 602.664 693.144 605.114 694.316C607.448 695.321 610.015 696.66 610.598 697.33C611.299 697.833 612.699 698.503 613.982 698.67C615.149 699.005 617.833 700.177 619.816 701.517C621.8 702.689 625.3 704.699 627.517 705.871C629.734 706.876 632.885 708.886 634.518 710.058C636.152 711.23 643.386 714.58 650.62 717.427C662.638 722.283 664.388 722.451 672.789 721.111C680.49 719.771 684.108 717.929 698.343 707.713C715.728 695.153 719.695 690.129 719.695 679.914C719.695 677.402 720.629 673.382 721.912 671.038C724.012 666.683 726.346 642.4 725.646 632.687C725.529 630.678 725.996 625.821 726.813 621.802C727.513 617.782 728.096 611.754 727.98 608.237C727.98 604.72 728.33 600.366 729.03 598.858C729.613 597.184 731.713 587.303 733.58 576.753C735.447 566.202 737.897 554.814 738.831 551.465C740.114 547.11 740.698 538.904 740.814 523.832C740.931 512.109 741.515 501.056 742.098 499.549C743.031 496.87 743.848 473.257 744.315 433.734C744.432 425.695 743.732 416.652 742.681 411.125C741.281 404.762 740.698 393.709 740.464 374.617C740.348 359.545 739.881 346.985 739.531 346.65C739.181 346.315 739.064 328.563 739.181 306.96C739.648 249.853 739.414 232.268 738.131 229.254C737.664 228.249 736.964 221.55 736.497 214.182C736.147 206.98 734.98 198.44 734.164 195.425C732.413 189.061 731.13 173.152 731.247 160.089C731.48 149.036 729.38 126.428 727.279 117.217C726.229 112.36 725.996 103.317 726.346 84.5604C726.813 62.7894 726.579 55.5883 724.596 41.0185C721.095 15.7306 720.745 11.2089 722.029 10.0367C723.429 8.86438 723.662 5.68246 722.379 6.18487C721.795 6.35234 719.812 5.34752 717.828 3.67283C715.845 2.16561 713.861 1.49573 713.511 1.99814C713.044 2.50055 712.111 2.16561 711.178 1.16079C710.244 -0.0114906 709.077 -0.0114906 708.027 0.825856Z" fill="#444444"/>
</svg>
