<svg width="746" height="745" viewBox="0 0 746 745" fill="none" xmlns="http://www.w3.org/2000/svg">
<path d="M218 9.03082C220.267 6.90698 226.533 4.07526 232 2.65942C237.467 1.24353 244.133 0.535583 246.667 1.24353C263.6 5.49115 275.733 6.90698 310.667 7.96893C350.267 9.38477 361.733 11.1547 368.133 16.8182C370.133 18.234 374.933 19.2959 378.8 18.588C382.8 17.8801 397.733 16.4641 412 15.0483C426.267 13.9863 441.867 11.5086 446.533 9.73877C453.467 7.26099 455.333 7.61493 457.067 11.8626C458.4 15.7562 460.8 16.8181 464.533 16.1102C467.6 15.0483 472.267 16.4642 475.067 18.942C477.733 21.4197 484.667 24.6054 490.4 26.0213C496 27.4371 501.333 29.561 502 30.9769C502.8 32.3927 506 35.9324 509.333 38.7642C517.067 45.1356 541.467 39.826 546.933 30.2689C549.333 26.0213 550.8 25.3134 551.333 27.7911C551.867 29.9149 552.8 30.2689 553.733 27.7911C555.867 23.5435 565.333 23.5435 565.333 28.1451C565.333 29.9149 566.4 30.6229 567.733 29.561C569.067 28.1451 573.733 30.6229 578.133 34.8705C582.4 38.7642 588.667 43.0118 591.867 43.7197C595.067 44.7816 598.667 46.9055 600 48.6753C605.6 56.4626 616.667 60.7102 635.333 61.4182C670.667 62.834 687.333 64.6039 689.067 67.4357C690 69.2055 690.667 68.4975 690.667 65.6658C690.667 58.9404 706.8 60.3563 716 67.7896C723.6 73.8071 728.667 80.5325 725.733 80.5325C724.8 80.5325 723.467 83.3642 722.8 86.9039C721.733 91.8595 722.267 96.4611 724.667 106.372C726.533 113.452 728 122.301 728 125.841C728 133.274 731.333 137.167 737.6 137.167C740.4 137.167 741.467 139.291 741.867 144.955C742.8 156.99 744.133 176.812 744.4 183.891C744.533 187.431 744.933 190.263 745.333 190.263C746.8 190.263 745.067 258.933 743.467 265.304C742.267 269.552 741.867 277.693 742.4 287.958C742.933 301.763 742.267 308.134 738.133 329.373C730.8 367.955 726.667 399.458 727.6 409.724C728 414.679 729.733 422.112 731.467 426.714C733.2 430.962 734.933 438.395 735.2 442.643C736.8 461.757 737.067 484.057 736 507.419C735.067 526.533 735.2 536.444 736.8 549.895C739.2 570.779 739.333 616.795 737.067 636.618C735.067 654.316 730.4 664.227 716.267 680.51C700.133 699.27 680.8 704.934 652.667 699.27C632 695.376 631.2 695.376 625.867 702.81C618.8 712.367 600.933 721.216 588.4 721.216C582.933 721.216 572.667 724.402 565.6 728.295C558.533 732.189 548.8 735.375 544 735.021C514.8 734.313 499.467 736.083 490.667 740.684C483.067 744.578 473.467 745.64 450.667 744.578C423.6 743.516 420 742.454 414.133 735.729C408.133 728.649 405.2 728.295 372.8 727.588H372.8C353.733 727.588 329.6 727.588 319.333 727.941C308.933 728.649 297.733 726.88 294 724.756C282.533 717.676 223.067 713.075 212 718.384C208 720.154 202 725.818 198.667 730.773C193.6 738.561 191.2 739.976 183.333 739.622C178.267 739.268 171.333 736.437 168 733.605C162.267 728.649 147.733 723.34 124.667 717.676C113.2 714.845 108.933 712.013 104.667 704.934C103.067 702.102 99.4666 699.27 96.6666 698.208C93.7332 697.5 87.1999 693.253 81.9999 689.359C76.9332 685.111 70.5332 680.156 67.9999 678.386C59.0666 671.66 45.7332 669.537 31.9999 672.368C22.5332 674.492 17.8666 674.138 17.5999 671.66C17.3332 669.891 15.4666 668.121 13.4666 668.121C7.86655 668.121 6.53322 662.457 8.79989 647.945C10.1332 639.449 10.3999 634.14 9.46655 631.308C8.66655 628.83 7.86655 619.981 7.46655 611.132C6.79989 594.495 6.26655 588.478 4.79989 579.275C4.26655 576.089 3.99989 572.195 4.13322 570.425C4.26655 568.656 3.59989 561.576 2.39989 554.851C1.33322 547.771 0.666552 535.382 1.06655 526.533C1.33322 517.684 1.86655 498.216 2.39989 482.995C2.93322 467.774 2.79989 453.97 2.26655 452.554C1.73322 451.138 2.13322 447.598 3.33322 445.12C5.59989 439.811 6.13322 416.803 3.73322 416.803C2.93322 416.803 3.19989 413.971 4.53322 410.077C6.39989 404.768 6.66655 399.812 6.13322 389.547C5.06655 372.911 8.93322 349.903 13.8666 342.469C17.3332 337.868 19.8666 323.355 18.1332 318.753C17.7332 317.692 17.9999 314.86 18.6666 312.382C20.6666 306.011 20.7999 287.25 18.7999 281.233C17.7332 277.339 17.4666 270.614 17.9999 259.995C18.6666 249.73 18.2666 241.234 17.1999 235.925C15.7332 228.138 15.1999 210.085 14.6666 143.185C14.5332 127.256 13.8666 118.407 12.7999 117.345C11.7332 116.283 10.6666 106.726 10.1332 94.3373C9.73322 81.9484 8.26655 68.8515 6.79989 63.188C5.19989 57.1705 4.53322 50.4451 4.93322 44.4277C5.46655 36.6403 6.53322 34.1625 10.5332 32.7467C13.1999 31.3308 17.7332 27.4371 20.7999 23.5435C28.2666 13.6324 49.8666 15.4022 66.3999 27.4372C69.1999 29.207 78.5332 30.6229 87.3332 30.6229C96.1332 30.6229 106.4 31.6848 110 33.4547C118 36.6403 162.8 35.2244 173.733 31.3308C178 29.9149 181.733 29.561 182 30.9769C182.933 34.8705 198.267 25.6673 200.8 20.0038C201.867 17.5261 205.333 15.0483 208.4 14.3404C211.467 13.6324 215.867 11.1546 218 9.03082Z" fill="#444444"/>
</svg>
